<svg xmlns="http://www.w3.org/2000/svg" version="1.1"    viewBox="36.07999922549415 101.83999999999999 533.839991363453 130.64">
<defs>
<g id="font_2_199">
<path transform="matrix(.001,0,0,-.001,0,0)" d="M207.125-31.296875 227.76563-17.125V0H117.703128 205.0625 73.640628V-17.125L98.296878-31.296875V-488.23439L73.640628-502.40626V-519.53128H205.0625 207.125V-31.296875ZM557.375 0H455.26564V-17.125L473.26564-31.296875V-327.5C473.26564-384.59376 463.95835-426.1979 445.34376-452.3125 426.7396-478.4375 396.07814-487.55729 353.35939-479.67189 325.36979-474.24479 299.01564-460.88023 274.29689-439.57814 249.58855-418.27604 227.59896-392.3021 208.32813-361.65626 189.0677-331.02085 172.65625-298.02604 159.09375-262.67189V-321.90626C185.9375-378.0521 217.36978-424.5625 253.39063-461.4375 289.42189-498.3229 330.66667-519.21878 377.125-524.125 426.35417-530 466.32814-525.3073 497.04689-510.04689 527.77609-494.79689 550.07296-471.56773 563.9375-440.35939 577.80209-409.16148 584.7344-371.54167 584.7344-327.5V-31.296875L604.0625-17.125V0H497.96876 557.375Z"/>
</g>
<g id="font_2_154">
<path transform="matrix(.001,0,0,-.001,0,0)" d="M44.703126-260.5625C44.703126-314.77085 56.3125-362.34898 79.53125-403.29689 102.75-444.25523 134.70313-475.8646 175.39063-498.125 216.08855-520.3958 261.69273-531.53128 312.20314-531.53128 399.48439-531.53128 465.83854-505.70314 511.26564-454.04689 556.6927-402.39064 578.2031-331.09898 575.7969-240.17188H468.09376C468.09376-312.50523 459.82814-367.47917 443.29689-405.09376 426.76564-442.71876 406.70835-469.89585 383.125-486.625 359.5521-503.3646 336-511.33335 312.46876-510.53126 288.625-509.72917 265.02604-502.00523 241.67188-487.35939 218.3177-472.72398 198.07813-447.58335 180.95313-411.9375 163.82813-376.29167 155.17708-325.83335 155-260.5625 154.82292-216.52083 162.875-179.96355 179.15625-150.89063 195.44792-121.828128 216.23438-98.94792 241.51563-82.25 266.79689-65.55208 293.06773-55.28125 320.32814-51.4375 346.48439-48.479169 373.97917-48.671876 402.8125-52.015626 431.64585-55.359376 458.71876-63.380208 484.03126-76.078128 509.34376-88.78646 529.0417-107.23958 543.125-131.4375L558.1719-121.703128C536.1719-80.09895 504.06773-47.53646 461.85939-24.015625 419.66148-.49479104 371.25 11.510417 316.625 12 260.45835 12.489583 211.82813 1.723959 170.73438-20.296875 129.64063-42.31771 98.359378-73.890628 76.890628-115.015628 55.43229-156.14063 44.703126-204.65625 44.703126-260.5625ZM563.7969-294.32814V-240.17188H114.359378V-255.29688L563.7969-294.32814Z"/>
</g>
<g id="font_3_9">
<path transform="matrix(.001,0,0,-.001,0,0)" d="M30.296875-519.53128C49.963544-535.0208 66.947917-554.48959 81.25-577.9375 95.552089-601.3958 106.614589-626.53646 114.4375-653.3594 122.260417-680.1823 126.083339-706.3958 125.90625-732H212.82813C210.2552-677.19796 192.5-625.6667 159.5625-577.40628 156.78125-573.78128 153.13542-570.08859 148.625-566.3281 135.1875-552.4219 120.979167-541.46878 106-533.46878 91.020839-525.46878 74.5625-518.4219 56.625-512.3281L57.359376-508.53126 71.53125-510.26564C144.21875-516.2656 193.4427-519.3542 219.20313-519.53128H310.4375V-451.67189H210.17188V-196.20313C210.17188-146.53646 222.4948-113.41667 247.14063-96.84375 271.79689-80.28125 300.38023-73.145839 332.89064-75.4375L357.39064-4.625C298.66148 4.208334 251.94792-.83333209 217.25-19.75 182.55208-38.677087 158.65105-62.99479 145.54688-92.703128 132.45313-122.41146 125.90625-154.29688 125.90625-188.35938V-451.67189H30.296875V-519.53128Z"/>
</g>
<g id="font_2_172">
<path transform="matrix(.001,0,0,-.001,0,0)" d="M537.375 0H435.26564V-17.125L453.26564-31.296875V-327.5C453.26564-384.10417 443.95835-425.46354 425.34376-451.57814 406.7396-477.70314 376.07814-487.06773 333.35939-479.67189 305.36979-474.73439 279.01564-461.6146 254.29688-440.3125 229.58855-419.0104 207.59896-392.91667 188.32813-362.03126 169.0677-331.14585 152.65625-298.02604 139.09375-262.67189V-321.90626C165.9375-378.54167 197.36978-425.29689 233.39063-462.17189 269.42189-499.05729 310.66667-519.7083 357.125-524.125 406.35417-529.0208 446.32814-523.96359 477.04689-508.95314 507.77604-493.94273 530.07296-470.95835 543.9375-440 557.80209-409.04167 564.7344-371.54167 564.7344-327.5V-31.296875L582.7344-17.125V0H480.625 537.375ZM201.53125-31.296875 219.53125-17.125V0H117.40625 176.82813 74.703128V-17.125L92.703128-31.296875V-700.7031L72.0625-714.875V-732H182.125 201.53125V-31.296875Z"/>
</g>
<g id="font_2_218">
<path transform="matrix(.001,0,0,-.001,0,0)" d="M205.53125-31.296875 226.17188-17.125V0H116.125 203.46875 72.0625V-17.125L96.703128-31.296875V-488.23439L72.0625-502.40626V-519.53128H203.46875 205.53125V-31.296875ZM195.9375-390.03126C205.09375-422.77085 222.21355-451.46876 247.29688-476.125 272.39064-500.79167 302.59898-517.1094 337.92189-525.0781 373.24479-533.0469 410.00523-529.53128 448.20314-514.53128L435-393.40626H414C397.0625-427.40626 372.98439-448.39585 341.76564-456.375 310.54689-464.3646 281.42189-459.90104 254.39063-442.98439 227.3698-426.07814 210.9948-400.9375 205.26563-367.5625L195.9375-390.03126Z"/>
</g>
<g id="font_2_205">
<path transform="matrix(.001,0,0,-.001,0,0)" d="M322.17189 12C264.01564 12 213.98438 .11458397 172.07813-23.65625 130.18228-47.4375 98.47917-79.84375 76.96875-120.875 55.458333-161.91667 44.703126-208.125 44.703126-259.5 44.703126-309.75 56.74479-355.5625 80.828128-396.9375 104.921878-438.3125 138.08333-470.96354 180.3125-494.89064 222.5521-518.8281 269.83854-530.7969 322.17189-530.7969 378.07814-530.7969 427.01564-519.4792 468.98439-496.84376 510.95314-474.21876 543.3802-442.26564 566.2656-400.98439 589.15109-359.70314 600.59378-312.54167 600.59378-259.5 600.59378-209.10416 588.6458-163.26563 564.75-121.984378 540.8542-80.703128 507.79689-48.052087 465.57814-24.03125 423.36979-.010416031 375.56773 12 322.17189 12ZM340.73439-10.265625C373.22398-12.890625 401.0104-24.96875 424.09376-46.5 447.1875-68.03125 464.1771-97.89583 475.0625-136.09375 485.95835-174.3021 489.58335-220.02603 485.9375-273.26564 482.29167-325.30729 472.21876-369.38023 455.71876-405.48439 439.21876-441.58854 417.73439-468.57814 391.26564-486.45314 364.79689-504.32814 335.40626-511.95314 303.09376-509.32814 271.27085-507.19273 243.77083-495.05729 220.59375-472.92189 197.41667-450.79689 180.5052-420.54167 169.85938-382.15626 159.21355-343.78126 155.71355-298.39585 159.35938-246 162.51563-193.25 172.26563-148.95313 188.60938-113.109378 204.95313-77.27604 226.27083-50.47396 252.5625-32.703126 278.85417-14.942707 308.24479-7.4635417 340.73439-10.265625Z"/>
</g>
<g id="font_2_215">
<path transform="matrix(.001,0,0,-.001,0,0)" d="M208.09375 236.70313 231.125 250.875V268H113.390628 193.96875 76.234378V250.875L99.265628 236.70313V-488.23439L77.5625-502.40626V-519.53128H191.32813 208.09375V236.70313ZM377.90626 9.09375C333.34376 6.614583 294.07814-6.15625 260.10939-29.21875 226.15103-52.291669 199.85417-83.4427 181.21875-122.671878 162.58333-161.91147 153.26563-207.52083 153.26563-259.5 153.26563-309.9271 162.89063-355.06773 182.14063-394.92189 201.40105-434.77604 228.17708-466.19273 262.46876-489.17189 296.7604-512.15109 335.2396-524.8802 377.90626-527.3594 427.6354-532.2969 474.1875-523.3281 517.5625-500.45314 560.94796-477.57814 595.6094-444.66148 621.5469-401.70314 647.4948-358.74479 660.46878-311.34376 660.46878-259.5 660.46878-208.05208 647.5833-160.97917 621.8125-118.28125 596.05209-75.58333 561.4792-42.619794 518.09378-19.390625 474.71876 3.828125 427.9896 13.322917 377.90626 9.09375ZM378.17189-13.09375C409.96354-12.5625 438.8125-21.848958 464.71876-40.953126 490.6354-60.06771 511.16148-88.359378 526.2969-125.828128 541.4323-163.29688 549-207.85416 549-259.5 549-309.77085 541.4323-353.43229 526.2969-390.48439 511.16148-427.53648 490.59376-455.65626 464.59376-474.84376 438.59376-494.04167 409.78648-503.46876 378.17189-503.125 346.74479-502.77085 318.25-493.03648 292.6875-473.92189 267.1354-454.81773 247-426.91667 232.28125-390.21876 217.5625-353.52085 210.20313-309.9479 210.20313-259.5 209.71355-208.34375 216.90625-164.25 231.78125-127.21875 246.65625-90.1875 266.86979-62.03646 292.42189-42.765626 317.98439-23.505208 346.56773-13.614583 378.17189-13.09375Z"/>
</g>
<g id="font_2_222">
<path transform="matrix(.001,0,0,-.001,0,0)" d="M376.09376-386.03126C372.3021-419.4375 360.34898-447.54167 340.23439-470.34376 320.11979-493.15626 295.30729-504.80729 265.79689-505.29689 240.57813-505.78648 219.26042-501.65626 201.84375-492.90626 184.4375-484.16667 171.92188-472.77604 164.29688-458.73439 156.67188-444.69273 154.01563-430.06773 156.32813-414.85939 158.8177-398.75523 166.77083-385.11979 180.1875-373.95314 193.61458-362.78648 214.03125-351.22398 241.4375-339.26564 249.79167-334.95314 258.89064-330.9271 268.73439-327.1875 278.57814-323.45835 288.58854-319.34898 298.76564-314.85939 360.85939-289.30729 406.27604-263.59898 435.01564-237.73438 463.75523-211.8698 478.2396-178.3125 478.46876-137.0625 478.5729-104.77083 470.04167-77.4948 452.875-55.234376 435.71876-32.984376 412.5104-16.338543 383.25-5.296875 353.9896 5.744792 322.01564 11.265625 287.32814 11.265625 236.42188 11.265625 189.2396-.796875 145.78125-24.921875 102.322917-49.057294 74.770839-94.18229 63.125-160.29688L155-173.64063 163.32813-166.85938C173.02605-112.890628 190.0625-73.296878 214.4375-48.078126 238.8125-22.869791 266.70835-10.442708 298.125-10.796875 323.33335-10.973958 344.60939-15.489583 361.95314-24.34375 379.29689-33.197919 391.82814-45.208333 399.54689-60.375 407.26564-75.541667 409.125-91.92708 405.125-109.53125 402.28126-122.375 396.0729-133.4323 386.5-142.70313 376.9271-151.98438 362.71354-161.27083 343.85939-170.5625 333.10939-176.03125 320.79167-181.7552 306.90626-187.73438 293.03126-193.71355 278.84898-199.79167 264.35939-205.96875 223.45313-223.10417 190.17188-239.7552 164.51563-255.92188 138.85938-272.08854 118.916667-290.9479 104.6875-312.5 90.46875-334.0521 83.604167-359.44273 84.09375-388.67189 84.583339-417.38023 93.416667-442.52604 110.59375-464.10939 127.78125-485.70314 150.83855-502.25 179.76563-513.75 208.70313-525.25 240.6927-530.84378 275.73439-530.53128 321.26564-529.90628 362.25523-518.7917 398.70314-497.1875 435.15104-475.59376 460.59376-442.31773 475.03126-397.35939L384.9375-381.03126 376.09376-386.03126Z"/>
</g>
</defs>
<g>

<use data-text="n" href="#font_2_199" transform="matrix(110.50228,0,0,-110.50228,37.995553,192.80722)"/>
<use data-text="e" href="#font_2_154" transform="matrix(110.50228,0,0,-110.50228,104.62817,192.80722)"/>
<use data-text="&#xfffd;" href="#font_3_9" transform="matrix(110.50228,0,0,-110.50228,165.61925,192.80722)"/>
<use data-text="h" href="#font_2_172" transform="matrix(110.50228,0,0,-110.50228,203.01847,192.80722)"/>
<use data-text="e" href="#font_2_154" transform="matrix(110.50228,0,0,-110.50228,267.08674,192.80722)"/>
<use data-text="r" href="#font_2_218" transform="matrix(110.50228,0,0,-110.50228,328.07783,192.80722)"/>
<use data-text="o" href="#font_2_205" transform="matrix(110.50228,0,0,-110.50228,373.17,192.80722)"/>
<use data-text="p" href="#font_2_215" transform="matrix(110.50228,0,0,-110.50228,436.72544,192.80722)"/>
<use data-text="s" href="#font_2_222" transform="matrix(110.50228,0,0,-110.50228,506.94813,192.80722)"/>
</g>
</svg>
