<svg width="206" height="46" viewBox="0 0 206 46" fill="none" xmlns="http://www.w3.org/2000/svg">
<path d="M57.2479 33.4526L57.9144 33.9082V34.4586H54.3603H57.1813H52.9375V33.9082L53.7337 33.4526V18.7656L52.9375 18.31V17.7596H57.1813H57.2479V33.4526ZM68.5579 34.4586H65.2606V33.9082L65.8419 33.4526V23.9319C65.8419 22.0968 65.5413 20.7596 64.9403 19.9202C64.3395 19.0804 63.3494 18.7873 61.97 19.0408C61.0661 19.2152 60.2151 19.6448 59.4169 20.3295C58.6191 21.0142 57.909 21.849 57.2867 22.8341C56.6648 23.8188 56.1348 24.8793 55.6969 26.0157V24.1117C56.5637 22.3071 57.5787 20.8121 58.7418 19.6269C59.9053 18.4413 61.2372 17.7696 62.7374 17.6119C64.3271 17.4231 65.6179 17.5739 66.6098 18.0644C67.6021 18.5546 68.3221 19.3013 68.7698 20.3044C69.2175 21.3071 69.4413 22.5163 69.4413 23.9319V33.4526L70.0655 33.9082V34.4586H66.6396H68.5579Z" fill="white"/>
<path d="M71.4766 26.0846C71.4766 24.3422 71.8514 22.8129 72.6012 21.4968C73.351 20.1803 74.3828 19.1643 75.6966 18.4488C77.0108 17.7329 78.4834 17.375 80.1145 17.375C82.9329 17.375 85.0755 18.2052 86.5424 19.8655C88.0093 21.5259 88.7039 23.8174 88.6262 26.74H85.1484C85.1484 24.415 84.8815 22.648 84.3476 21.439C83.8138 20.2296 83.1662 19.3561 82.4046 18.8184C81.6434 18.2803 80.8829 18.0242 80.123 18.05C79.3531 18.0758 78.5911 18.324 77.8369 18.7948C77.0828 19.2652 76.4292 20.0733 75.8762 21.219C75.3233 22.3648 75.0439 23.9866 75.0382 26.0846C75.0325 27.5002 75.2925 28.6752 75.8182 29.6097C76.3443 30.5439 77.0155 31.2793 77.8319 31.816C78.6482 32.3527 79.4966 32.6828 80.3768 32.8064C81.2215 32.9015 82.1093 32.8953 83.0404 32.7878C83.9714 32.6803 84.8456 32.4225 85.663 32.0144C86.4804 31.6059 87.1165 31.0128 87.5712 30.235L88.0571 30.5479C87.3467 31.8851 86.31 32.9318 84.9471 33.6878C83.5844 34.4438 82.0212 34.8297 80.2573 34.8454C78.4436 34.8611 76.8732 34.5151 75.5463 33.8073C74.2193 33.0995 73.2092 32.0847 72.5159 30.7628C71.823 29.441 71.4766 27.8816 71.4766 26.0846ZM88.2387 24.9993V26.74H73.7258V26.2538L88.2387 24.9993Z" fill="white"/>
<path d="M88.832 17.7609C89.4671 17.263 90.0155 16.6373 90.4774 15.8836C90.9392 15.1296 91.2964 14.3215 91.549 13.4593C91.8016 12.5972 91.9251 11.7546 91.9194 10.9316H94.7262C94.6431 12.6931 94.0698 14.3495 93.0062 15.9007C92.9164 16.0172 92.7986 16.1359 92.653 16.2567C92.2191 16.7037 91.7603 17.0558 91.2766 17.3129C90.7929 17.5701 90.2614 17.7966 89.6822 17.9924L89.7059 18.1145L90.1635 18.0587C92.5107 17.8659 94.1002 17.7666 94.932 17.7609H97.8781V19.9421H94.6404V28.1535C94.6404 29.7499 95.0383 30.8144 95.8342 31.3471C96.6304 31.8795 97.5534 32.1088 98.6032 32.0352L99.3943 34.3112C97.4979 34.5952 95.9894 34.4331 94.869 33.8251C93.7485 33.2167 92.9767 32.4351 92.5536 31.4802C92.1308 30.5253 91.9194 29.5004 91.9194 28.4056V19.9421H88.832V17.7609Z" fill="white"/>
<path d="M116.135 34.4599H112.838V33.9095L113.419 33.4539V23.9333C113.419 22.1139 113.118 20.7845 112.517 19.9451C111.917 19.1054 110.926 18.8044 109.547 19.0421C108.643 19.2008 107.792 19.6225 106.994 20.3072C106.196 20.9919 105.486 21.8306 104.864 22.8233C104.242 23.8161 103.712 24.8806 103.274 26.017V24.113C104.141 22.2926 105.156 20.7898 106.319 19.6046C107.482 18.419 108.814 17.7552 110.314 17.6132C111.904 17.4559 113.195 17.6184 114.187 18.1009C115.179 18.5834 115.899 19.3222 116.347 20.3172C116.795 21.3123 117.018 22.5176 117.018 23.9333V33.4539L117.6 33.9095V34.4599H114.302H116.135ZM105.29 33.4539L105.871 33.9095V34.4599H102.574H104.492H101.195V33.9095L101.776 33.4539V11.9376L101.109 11.4821V10.9316H104.663H105.29V33.4539Z" fill="white"/>
<path d="M118.949 26.0846C118.949 24.3422 119.324 22.8129 120.074 21.4968C120.824 20.1803 121.855 19.1643 123.169 18.4488C124.483 17.7329 125.956 17.375 127.587 17.375C130.406 17.375 132.548 18.2052 134.015 19.8655C135.482 21.5259 136.177 23.8174 136.099 26.74H132.621C132.621 24.415 132.354 22.648 131.82 21.439C131.286 20.2296 130.639 19.3561 129.877 18.8184C129.116 18.2803 128.356 18.0242 127.596 18.05C126.826 18.0758 126.064 18.324 125.31 18.7948C124.555 19.2652 123.902 20.0733 123.349 21.219C122.796 22.3648 122.517 23.9866 122.511 26.0846C122.505 27.5002 122.765 28.6752 123.291 29.6097C123.817 30.5439 124.488 31.2793 125.305 31.816C126.121 32.3527 126.969 32.6828 127.849 32.8064C128.694 32.9015 129.582 32.8953 130.513 32.7878C131.444 32.6803 132.318 32.4225 133.136 32.0144C133.953 31.6059 134.589 31.0128 135.044 30.235L135.53 30.5479C134.819 31.8851 133.783 32.9318 132.42 33.6878C131.057 34.4438 129.494 34.8297 127.73 34.8454C125.916 34.8611 124.346 34.5151 123.019 33.8073C121.692 33.0995 120.682 32.0847 119.989 30.7628C119.296 29.441 118.949 27.8816 118.949 26.0846ZM135.711 24.9993V26.74H121.199V26.2538L135.711 24.9993Z" fill="white"/>
<path d="M141.966 33.4538L142.633 33.9094V34.4598H139.079H141.9H137.656V33.9094L138.452 33.4538V18.7668L137.656 18.3112V17.7608H141.9H141.966V33.4538ZM141.656 21.9232C141.952 20.8709 142.505 19.9485 143.315 19.156C144.125 18.3631 145.101 17.8386 146.241 17.5825C147.382 17.3264 148.569 17.4394 149.802 17.9215L149.376 21.8148H148.698C148.151 20.7219 147.373 20.0473 146.365 19.7908C145.357 19.534 144.417 19.6775 143.544 20.2212C142.671 20.7646 142.143 21.5727 141.958 22.6454L141.656 21.9232Z" fill="white"/>
<path d="M158.909 34.8452C157.031 34.8452 155.416 34.4632 154.062 33.6992C152.709 32.9348 151.686 31.8932 150.991 30.5743C150.297 29.2551 149.949 27.7699 149.949 26.1186C149.949 24.5034 150.338 23.0309 151.116 21.701C151.894 20.3711 152.965 19.3216 154.328 18.5526C155.692 17.7831 157.219 17.3984 158.909 17.3984C160.714 17.3984 162.295 17.7622 163.65 18.4898C165.005 19.217 166.052 20.244 166.791 21.5709C167.53 22.8978 167.9 24.4137 167.9 26.1186C167.9 27.7384 167.514 29.2118 166.742 30.5387C165.971 31.8655 164.903 32.915 163.54 33.6871C162.177 34.4592 160.633 34.8452 158.909 34.8452ZM159.508 34.1296C160.558 34.0452 161.455 33.657 162.2 32.9649C162.946 32.2728 163.495 31.3129 163.846 30.0852C164.198 28.857 164.315 27.3874 164.197 25.6761C164.079 24.0034 163.754 22.5868 163.221 21.4263C162.689 20.2658 161.995 19.3983 161.14 18.8238C160.285 18.2492 159.336 18.0041 158.293 18.0885C157.265 18.1571 156.377 18.5472 155.629 19.2587C154.881 19.9698 154.334 20.9423 153.991 22.1761C153.647 23.4096 153.534 24.8684 153.652 26.5525C153.754 28.248 154.068 29.6718 154.596 30.8239C155.124 31.9757 155.812 32.8372 156.661 33.4084C157.51 33.9792 158.459 34.2196 159.508 34.1296Z" fill="white"/>
<path d="M173.797 42.0679L174.541 42.5234V43.0738H170.739H173.341H169.539V42.5234L170.283 42.0679V18.7666L169.582 18.3111V17.7607H173.256H173.797V42.0679ZM179.28 34.752C177.841 34.6723 176.574 34.2618 175.477 33.5205C174.38 32.7789 173.531 31.7776 172.929 30.5167C172.327 29.2554 172.026 27.7894 172.026 26.1187C172.026 24.4979 172.337 23.0469 172.959 21.7659C173.581 20.4849 174.445 19.4751 175.553 18.7365C176.66 17.9979 177.903 17.5887 179.28 17.5091C180.886 17.3504 182.389 17.6386 183.79 18.3739C185.191 19.1091 186.31 20.1672 187.148 21.548C187.986 22.9287 188.405 24.4523 188.405 26.1187C188.405 27.7724 187.989 29.2854 187.156 30.6578C186.325 32.0302 185.208 33.0898 183.807 33.8364C182.407 34.5827 180.898 34.8879 179.28 34.752ZM179.289 34.0388C180.316 34.0559 181.247 33.7574 182.084 33.1433C182.921 32.5289 183.583 31.6196 184.072 30.4152C184.561 29.2109 184.805 27.7787 184.805 26.1187C184.805 24.5029 184.561 23.0995 184.072 21.9086C183.583 20.7176 182.919 19.8138 182.08 19.197C181.24 18.58 180.31 18.277 179.289 18.288C178.274 18.2994 177.354 18.6123 176.529 19.2267C175.703 19.8407 175.053 20.7375 174.578 21.9171C174.103 23.0967 173.865 24.4972 173.865 26.1187C173.849 27.763 174.082 29.1803 174.562 30.3705C175.042 31.5608 175.695 32.4657 176.52 33.0851C177.345 33.7042 178.268 34.0221 179.289 34.0388Z" fill="white"/>
<path d="M199.743 22.0512C199.62 20.9775 199.234 20.0741 198.585 19.3412C197.935 18.608 197.134 18.2335 196.181 18.2177C195.367 18.202 194.679 18.3348 194.116 18.616C193.554 18.8969 193.15 19.263 192.904 19.7144C192.657 20.1657 192.572 20.6358 192.646 21.1246C192.727 21.6423 192.984 22.0805 193.417 22.4394C193.85 22.7984 194.51 23.17 195.395 23.5544C195.664 23.693 195.958 23.8224 196.276 23.9426C196.594 24.0625 196.917 24.1946 197.246 24.3389C199.251 25.1602 200.717 25.9865 201.646 26.8179C202.574 27.6492 203.041 28.7278 203.049 30.0537C203.052 31.0916 202.777 31.9683 202.222 32.6838C201.668 33.399 200.919 33.934 199.974 34.289C199.029 34.6439 197.997 34.8213 196.877 34.8213C195.233 34.8213 193.709 34.4336 192.306 33.6582C190.902 32.8824 190.013 31.432 189.637 29.3069L192.603 28.878L192.872 29.0959C193.186 30.8306 193.736 32.1033 194.523 32.9139C195.31 33.7241 196.211 34.1236 197.225 34.1122C198.039 34.1065 198.726 33.9613 199.286 33.6767C199.846 33.3921 200.251 33.0061 200.5 32.5186C200.749 32.0311 200.809 31.5045 200.68 30.9386C200.588 30.5258 200.388 30.1704 200.079 29.8724C199.77 29.5741 199.311 29.2756 198.702 28.9769C198.355 28.8011 197.957 28.6172 197.509 28.425C197.061 28.2328 196.603 28.0374 196.135 27.8389C194.814 27.2881 193.739 26.7529 192.911 26.2333C192.082 25.7136 191.438 25.1074 190.979 24.4147C190.52 23.722 190.298 22.9058 190.314 21.9664C190.33 21.0436 190.615 20.2353 191.17 19.5416C191.725 18.8475 192.469 18.3157 193.403 17.946C194.338 17.5764 195.371 17.3966 196.502 17.4066C197.972 17.4267 199.296 17.784 200.473 18.4784C201.65 19.1725 202.471 20.242 202.938 21.6871L200.028 22.2119L199.743 22.0512Z" fill="white"/>
<path d="M19.9382 0C20.788 0.0503879 21.3345 0.0878383 21.5776 0.112351C23.5447 0.311179 25.436 0.804844 27.2513 1.59335C27.3038 1.61619 27.3477 1.65509 27.3767 1.70446C27.4057 1.75383 27.4183 1.81112 27.4127 1.8681L26.6323 9.58153C26.6298 9.60678 26.6182 9.63018 26.5997 9.64717C26.5811 9.66416 26.5571 9.67353 26.5323 9.67345H12.1247C12.1024 9.67354 12.0808 9.66523 12.0642 9.65012C12.0476 9.63502 12.0371 9.61421 12.0348 9.59174L11.2709 1.87116C11.265 1.80904 11.2788 1.74671 11.3104 1.69313C11.3419 1.63954 11.3896 1.59746 11.4465 1.57292C13.3313 0.759904 15.2954 0.265217 17.3388 0.0888597C17.5969 0.0663894 18.0855 0.0367695 18.8045 0H19.9382Z" fill="#8C73FF"/>
<path d="M0 31.9314V31.7159C0.45281 31.0997 0.832762 30.6098 1.13986 30.2461C3.32151 27.6655 5.48853 25.0729 7.64091 22.4684C7.65142 22.4554 7.65663 22.439 7.65549 22.4224C7.65435 22.4059 7.64695 22.3906 7.63479 22.3795C7.61708 22.3632 7.60006 22.3547 7.58372 22.354C7.32973 22.3444 6.45407 22.3363 4.95674 22.3295C4.94761 22.3294 4.93867 22.3269 4.93088 22.3221C4.92309 22.3174 4.91675 22.3106 4.91254 22.3025C4.90833 22.2944 4.90642 22.2853 4.90701 22.2762C4.9076 22.2671 4.91067 22.2583 4.91588 22.2508C5.0759 22.0288 5.15795 21.9155 5.16203 21.9107C8.54687 17.9089 10.4507 15.6507 10.8736 15.1359C11.4462 14.438 11.9038 13.8612 12.2463 13.4057C12.2763 13.3662 12.2756 13.3274 12.2443 13.2893C12.2208 13.2596 8.13424 13.275 5.41023 13.2709C5.39398 13.2709 5.37839 13.2644 5.3669 13.2529C5.3554 13.2414 5.34895 13.2259 5.34895 13.2096V10.9462C5.34895 10.9289 5.35583 10.9123 5.36809 10.9C5.38035 10.8877 5.39698 10.8809 5.41431 10.8809H33.4296C33.4487 10.8809 33.4675 10.8846 33.4851 10.8919C33.5027 10.8992 33.5187 10.9099 33.5322 10.9233C33.5457 10.9368 33.5563 10.9528 33.5636 10.9704C33.5709 10.988 33.5747 11.0068 33.5747 11.0259V13.1933C33.5747 13.2036 33.5726 13.2138 33.5687 13.2234C33.5647 13.2329 33.5589 13.2416 33.5516 13.2489C33.5443 13.2562 33.5357 13.262 33.5261 13.2659C33.5166 13.2699 33.5064 13.2719 33.496 13.2719H26.7795C26.7573 13.2719 26.7357 13.2785 26.7174 13.2909C26.699 13.3033 26.6848 13.3208 26.6765 13.3413C26.6681 13.3618 26.6661 13.3843 26.6706 13.406C26.6751 13.4276 26.686 13.4474 26.7018 13.4629C27.2193 13.9661 27.8533 14.5905 28.6036 15.3361C28.716 15.4478 28.8668 15.5196 29.0561 15.5516C31.1642 15.9077 33.0749 16.2233 34.7881 16.4984C35.6317 16.6339 36.2987 16.7858 36.7889 16.954C38.0861 17.3993 39.3373 17.9641 40.4373 18.7771C42.1416 20.0368 43.1848 21.7177 43.5668 23.8197C43.568 23.8265 43.5671 23.8336 43.5642 23.84C43.5614 23.8463 43.5567 23.8517 43.5507 23.8553C43.5447 23.8589 43.5378 23.8607 43.5309 23.8603C43.5239 23.86 43.5172 23.8576 43.5116 23.8534C42.1995 22.8381 40.7451 22.0802 39.1483 21.5798C38.0595 21.2386 36.776 21.0136 35.2977 20.9046C32.1049 20.6677 29.0255 20.8383 25.7468 21.1161C25.6988 21.1201 25.6527 21.1382 25.6141 21.1682L24.6519 21.9127C24.6453 21.9175 24.6405 21.9243 24.6382 21.9321C24.6359 21.9399 24.6362 21.9482 24.6391 21.9558C24.642 21.9634 24.6474 21.9698 24.6543 21.974C24.6612 21.9782 24.6694 21.98 24.6775 21.9791C27.4331 21.7606 29.9825 21.6254 32.3255 21.5736C35.3917 21.5062 38.2914 21.8065 41.0338 23.026C41.0436 23.0304 41.0519 23.0376 41.0577 23.0466C41.0635 23.0557 41.0665 23.0662 41.0664 23.0769C41.0663 23.0877 41.063 23.0981 41.0571 23.1071C41.0511 23.116 41.0426 23.123 41.0328 23.1272C39.562 23.7638 38.0303 24.157 36.4376 24.3068C35.0077 24.4423 33.7418 24.5649 32.6401 24.6745C30.2818 24.9105 27.8141 26.2485 26.6753 28.4036C25.7874 30.082 25.5998 31.8698 26.1125 33.7668C26.2378 34.2305 26.3539 34.6173 26.4608 34.9271C26.4804 34.9832 26.4904 35.0419 26.4904 35.1007V40.9083C26.4903 40.9162 26.488 40.9239 26.4837 40.9305C26.4795 40.9372 26.4735 40.9425 26.4665 40.946C26.4594 40.9495 26.4515 40.951 26.4437 40.9503C26.4358 40.9496 26.4283 40.9467 26.422 40.942L22.4407 37.9575C22.4117 37.9359 22.376 37.9255 22.3399 37.9281C22.3039 37.9307 22.2701 37.9463 22.2445 37.9718L19.7412 40.4752C19.7342 40.4822 19.7258 40.4875 19.7164 40.4906C19.7071 40.4938 19.6972 40.4947 19.6876 40.4933C19.6779 40.4919 19.6687 40.4883 19.6608 40.4826C19.6529 40.477 19.6465 40.4696 19.6421 40.4609L17.199 35.7565C17.1915 35.7422 17.1811 35.7296 17.1685 35.7196C17.1558 35.7096 17.1412 35.7024 17.1256 35.6985C17.11 35.6945 17.0937 35.6939 17.0778 35.6967C17.0619 35.6995 17.0468 35.7056 17.0335 35.7146L13.3228 38.1894C13.3114 38.197 13.2983 38.2018 13.2847 38.2035C13.271 38.2052 13.2572 38.2038 13.2442 38.1992C13.2313 38.1947 13.2195 38.1872 13.21 38.1773C13.2004 38.1674 13.1932 38.1555 13.189 38.1424C12.9385 37.3437 12.7209 36.6573 12.5364 36.0833C12.4914 35.9413 12.6058 35.684 12.6395 35.5706C13.3593 33.1506 14.0167 30.9792 14.6118 29.0562C14.6125 29.0548 14.6125 29.0531 14.612 29.0515C14.6114 29.05 14.6102 29.0488 14.6087 29.0481C14.6073 29.0474 14.6056 29.0473 14.604 29.0479C14.6025 29.0485 14.6012 29.0496 14.6006 29.0511L11.7867 33.7505C11.7251 33.8532 11.6318 33.9329 11.5211 33.9772L6.27431 36.0864C6.2653 36.09 6.25557 36.0916 6.24586 36.091C6.23614 36.0903 6.22671 36.0875 6.21825 36.0827C6.20979 36.0778 6.20254 36.0712 6.19704 36.0631C6.19153 36.0551 6.18792 36.046 6.18647 36.0363L5.86781 33.9548C5.86316 33.9218 5.87041 33.8885 5.88823 33.8608L11.0533 25.7255C11.0554 25.7217 11.0561 25.7172 11.0551 25.713C11.0542 25.7089 11.0517 25.7053 11.0482 25.7031L11.0462 25.702C11.0437 25.7001 11.0406 25.6992 11.0374 25.6996C11.0341 25.7 11.0311 25.7016 11.0288 25.7041L5.49909 31.8773C5.48818 31.8895 5.47489 31.8993 5.4601 31.906C5.44531 31.9127 5.42936 31.9161 5.41329 31.9161L0 31.9314ZM18.6166 16.7579L21.3263 16.6567C21.3344 16.6565 21.3424 16.658 21.3498 16.6612C21.3572 16.6644 21.3639 16.6692 21.3692 16.6753C21.3746 16.6813 21.3785 16.6885 21.3808 16.6962C21.3831 16.7039 21.3837 16.7121 21.3825 16.7201C21.1976 17.8507 22.0229 18.8823 23.1995 18.7761C23.9666 18.7066 24.4599 18.1398 24.7347 17.4555C24.7386 17.4456 24.7406 17.4351 24.7405 17.4244C24.7404 17.4138 24.7382 17.4033 24.7341 17.3935C24.7299 17.3837 24.7238 17.3749 24.7162 17.3675C24.7086 17.36 24.6996 17.3542 24.6897 17.3503C24.3568 17.2182 23.9986 17.053 23.6152 16.8549C22.6293 16.3442 21.7965 15.9176 21.1169 15.5751C21.0868 15.5602 21.0537 15.5524 21.0202 15.5524C20.9867 15.5524 20.9538 15.5602 20.9239 15.5751L18.6105 16.7313C18.6075 16.7327 18.605 16.7352 18.6035 16.7383C18.602 16.7414 18.6016 16.7449 18.6023 16.7481C18.6031 16.7513 18.6049 16.754 18.6075 16.7558C18.6102 16.7576 18.6134 16.7584 18.6166 16.7579ZM15.4146 18.5933C15.401 18.5926 15.387 18.5994 15.3727 18.6137C14.5611 19.4458 12.9514 21.0442 10.5437 23.4091C10.5076 23.4445 10.4871 23.4656 10.4824 23.4724C10.4793 23.4773 10.4778 23.4829 10.478 23.4887C10.4782 23.4945 10.4801 23.5 10.4835 23.5047C10.487 23.5093 10.4917 23.5128 10.4971 23.5147C10.5026 23.5166 10.5085 23.5168 10.514 23.5153L12.6763 22.9168C12.7028 22.9095 12.7307 22.9088 12.7575 22.9147C12.7844 22.9206 12.8094 22.9328 12.8305 22.9505L14.5127 24.3855C14.5276 24.398 14.5368 24.4159 14.5386 24.4352C14.5403 24.4545 14.5343 24.4737 14.5219 24.4887C13.7709 25.3875 13.1308 26.3608 12.6017 27.4088C12.5989 27.4139 12.5979 27.4197 12.599 27.4254C12.6 27.4311 12.603 27.4362 12.6075 27.44C12.612 27.4438 12.6178 27.446 12.6238 27.4463C12.6297 27.4465 12.6357 27.4448 12.6405 27.4415C13.681 26.7197 14.7926 26.1715 15.9753 25.797C16.0029 25.7883 16.0322 25.7867 16.0606 25.7924C16.089 25.7981 16.1156 25.8109 16.1377 25.8297L17.4696 26.9655C17.4957 26.9878 17.5261 27.0045 17.559 27.0147C17.5918 27.0249 17.6264 27.0283 17.6606 27.0247L20.641 26.7306C20.6483 26.7297 20.6558 26.7312 20.6622 26.735C20.6685 26.7387 20.6735 26.7445 20.6763 26.7513C20.6791 26.7582 20.6795 26.7658 20.6776 26.7729C20.6756 26.78 20.6714 26.7863 20.6655 26.7908C19.0517 28.0543 18.1866 29.8437 17.8036 31.7966C17.8019 31.8052 17.8034 31.8142 17.8078 31.8218C17.8123 31.8295 17.8193 31.8353 17.8275 31.8381C17.8358 31.8409 17.8447 31.8405 17.8525 31.837C17.8604 31.8334 17.8666 31.8271 17.87 31.8191C18.5652 30.317 19.6036 29.1203 20.9852 28.2289C20.9945 28.2229 21.0055 28.22 21.0165 28.2206C21.0276 28.2213 21.0382 28.2254 21.0467 28.2325C21.0553 28.2395 21.0613 28.2492 21.0641 28.2599C21.0668 28.2707 21.066 28.282 21.0618 28.2923C20.3438 30.0643 20.1334 32.0724 20.1855 33.9854C20.1857 33.992 20.1883 33.9983 20.1926 34.0033C20.1969 34.0083 20.2027 34.0117 20.2091 34.0129C20.2155 34.0141 20.222 34.013 20.2276 34.0099C20.2332 34.0067 20.2374 34.0017 20.2396 33.9956C20.7292 32.7591 21.4639 31.6829 22.4437 30.7671C22.5922 30.6288 22.7174 30.5287 22.8196 30.4668C22.8275 30.4621 22.8366 30.4597 22.8459 30.4599C22.8551 30.4602 22.8641 30.463 22.8718 30.4681C22.8795 30.4733 22.8855 30.4805 22.8893 30.4889C22.8931 30.4973 22.8944 30.5066 22.8931 30.5158C22.5796 32.4891 23.4916 34.6646 24.752 36.166C24.7568 36.1715 24.7634 36.1751 24.7707 36.1762C24.7779 36.1774 24.7853 36.1759 24.7915 36.1722C24.7977 36.1685 24.8022 36.1628 24.8044 36.156C24.8065 36.1493 24.806 36.1419 24.8031 36.1354C23.7746 33.633 23.4048 31.0183 24.4517 28.4822C24.5457 28.2534 24.6145 28.0836 24.6581 27.9726C24.6593 27.9701 24.6597 27.9672 24.6592 27.9645C24.6586 27.9618 24.6572 27.9593 24.655 27.9575C24.6529 27.9557 24.6502 27.9547 24.6474 27.9547C24.6446 27.9546 24.6419 27.9555 24.6397 27.9572C23.5666 28.6075 22.5748 29.2997 21.6644 30.0337C21.6607 30.0367 21.6561 30.0385 21.6514 30.0388C21.6466 30.0391 21.6418 30.038 21.6377 30.0355C21.6336 30.0331 21.6304 30.0295 21.6284 30.0251C21.6264 30.0208 21.6258 30.0159 21.6266 30.0112C21.9432 28.1993 22.7709 26.6727 24.1096 25.4314C24.115 25.4265 24.1187 25.42 24.1202 25.4129C24.1217 25.4058 24.1209 25.3984 24.118 25.3917C24.115 25.385 24.1101 25.3795 24.1038 25.3758C24.0975 25.3721 24.0903 25.3705 24.083 25.3711L17.9977 25.9543C17.9689 25.957 17.9401 25.9524 17.9139 25.941C17.8227 25.9022 17.7325 25.8433 17.6433 25.7644C15.7319 24.0689 14.3697 22.8653 13.5567 22.1538C13.5443 22.1428 13.5359 22.128 13.5329 22.1117C13.5299 22.0954 13.5326 22.0785 13.5404 22.0639L15.4269 18.6157C15.4281 18.6135 15.4287 18.611 15.4287 18.6085C15.4286 18.6059 15.428 18.6034 15.4268 18.6012C15.4256 18.599 15.4238 18.5971 15.4217 18.5957C15.4196 18.5943 15.4171 18.5935 15.4146 18.5933Z" fill="#8C73FF"/>
</svg>
