<svg xmlns="http://www.w3.org/2000/svg" version="1.1"    viewBox="30.319999322307382 101.36 536.7199913150464 128.48000000000002">
<defs>
<g id="font_2_186">
<path transform="matrix(.001,0,0,-.001,0,0)" d="M87.0625-151.42188 391.34376-301.35939C398.15626-303.52604 406.0521-304.90104 415.03126-305.48439 424.0104-306.07814 433.72917-306.04167 444.1875-305.375 455.3125-305.21876 464.11979-305.14064 470.60939-305.14064L470.10939-334.53126C463.95314-335.04167 455.3125-334.79689 444.1875-333.79689 435.21876-333.80729 425.82814-333.97917 416.01564-334.3125 406.21354-334.65626 397.3229-335.57814 389.34376-337.07814L87.0625-485.51564V-547.9844L513.375-341.5V-295.4375L87.0625-88.953128V-151.42188Z"/>
</g>
<g id="font_3_205">
<path transform="matrix(.001,0,0,-.001,0,0)" d="M321.98439 12C263.99479 12 214.08855 .13020897 172.26563-23.609375 130.4427-47.359376 98.78125-79.734378 77.28125-120.734378 55.78125-161.73438 45.03125-207.89583 45.03125-259.21876 45.03125-309.375 57.072916-355.1146 81.15625-396.4375 105.239589-437.77085 138.35938-470.39585 180.51563-494.3125 222.6823-518.2292 269.83854-530.1875 321.98439-530.1875 377.80729-530.1875 426.67189-518.84896 468.57814-496.17189 510.49479-473.50523 542.86459-441.54689 565.6875-400.29689 588.51046-359.05729 599.9219-312.03126 599.9219-259.21876 599.9219-208.89583 587.96359-163.10938 564.0469-121.859378 540.1302-80.61979 507.08854-48 464.92189-24 422.76564 0 375.11979 12 321.98439 12ZM340.75-10.25C373.625-12.916667 401.79167-25.09375 425.25-46.78125 448.70835-68.46875 465.9896-98.4375 477.09376-136.6875 488.1979-174.94792 491.91667-220.46875 488.25-273.25 484.58335-324.875 474.35939-368.72398 457.57814-404.79689 440.79689-440.88023 418.96354-467.88023 392.07814-485.79689 365.20314-503.72398 335.41148-511.35417 302.70314-508.6875 270.49479-506.5104 242.6198-494.28648 219.07813-472.01564 195.54688-449.75523 178.35417-419.41667 167.5-381 156.64583-342.58335 153.05208-297.39585 156.71875-245.4375 159.88542-193.15625 169.77605-149.09897 186.39063-113.265628 203.0052-77.43229 224.66667-50.59375 251.375-32.75 278.08335-14.916666 307.875-7.4166667 340.75-10.25Z"/>
</g>
<g id="font_3_215">
<path transform="matrix(.001,0,0,-.001,0,0)" d="M205.46875 237.03125 228.1875 251.01563V268H110.4375 194.84375 77.09375V251.01563L99.8125 237.03125V-487.96876L78.328128-501.95314V-518.9375H192.35938 205.46875V237.03125ZM377.73439 9.265625C332.86979 6.953125 293.24479-5.744791 258.85939-28.828125 224.48438-51.921876 197.82292-83.140628 178.875-122.484378 159.92708-161.82813 150.45313-207.40625 150.45313-259.21876 150.45313-309.54167 160.21355-354.66148 179.73438-394.57814 199.26563-434.50523 226.3854-465.96876 261.09376-488.96876 295.8125-511.97917 334.69273-524.6406 377.73439-526.9531 427.39064-531.58859 473.83335-522.4427 517.0625-499.51564 560.30209-476.59898 594.8333-443.72917 620.65628-400.90626 646.4792-358.09376 659.3906-310.8646 659.3906-259.21876 659.3906-207.89583 646.5625-160.94792 620.90628-118.375 595.25-75.8125 560.80209-42.901044 517.5625-19.640625 474.33335 3.609375 427.72398 13.244792 377.73439 9.265625ZM377.98439-12.703125C410.19273-12.213542 439.44273-21.598958 465.73439-40.859376 492.02604-60.13021 512.84896-88.515628 528.2031-126.015628 543.5573-163.52605 551.2344-207.92708 551.2344-259.21876 551.2344-309.1875 543.5573-352.71354 528.2031-389.79689 512.84896-426.89064 491.98439-455.10939 465.60939-474.45314 439.23439-493.80729 410.02604-503.31773 377.98439-502.98439 346.09898-502.65104 317.1771-492.84898 291.21876-473.57814 265.2604-454.31773 244.8073-426.30729 229.85938-389.54689 214.92188-352.79689 207.45313-309.35417 207.45313-259.21876 206.95313-208.42708 214.2552-164.48438 229.35938-127.390628 244.47396-90.30729 265.0104-62.046876 290.96876-42.609376 316.9271-23.171875 345.93229-13.203125 377.98439-12.703125Z"/>
</g>
<g id="font_4_9">
<path transform="matrix(.001,0,0,-.001,0,0)" d="M30.53125-518.9375C50.010419-534.625 66.86979-554.21878 81.109378-577.71878 95.34896-601.2292 106.385417-626.40109 114.21875-653.2344 122.0625-680.0677 125.90104-706.32296 125.734378-732H208.54688C206.04688-676.7917 188.29688-624.9219 155.29688-576.3906 152.64063-572.90109 149.15625-569.3333 144.84375-565.6875 131.70833-551.8542 117.916667-540.9375 103.46875-532.9375 89.03125-524.9375 73.08855-517.8542 55.640626-511.6875L56.390626-507.9375 70.375-509.6875C140.9896-515.6875 189.125-518.7708 214.78125-518.9375H305.75V-454H206.0625V-194.01563C206.0625-143.78646 218.48958-110.333339 243.34375-93.65625 268.1979-76.979167 296.96876-69.71354 329.65626-71.859378L352.75-4.203125C294.65626 4.067709 248.60417-1.3020821 214.59375-20.3125 180.58333-39.322919 157.27083-63.46875 144.65625-92.75 132.04167-122.04167 125.734378-153.40625 125.734378-186.84375V-454H30.53125V-518.9375Z"/>
</g>
<g id="font_3_251">
<path transform="matrix(.001,0,0,-.001,0,0)" d="M156.4375 229.5625C163.4375 230.0625 170.34896 226.85417 177.17188 219.9375 184.0052 213.03125 190.08333 202.66667 195.40625 188.84375L265.42189 0H286.92189L212.64063 195.85938C201.16146 225.32813 186.26042 246.46875 167.9375 259.28126 149.625 272.09376 127.47917 278 101.5 277 80.36458 276 60.927087 269.33854 43.1875 257.01564 25.458333 244.70313 14.005209 228.73438 8.828125 209.10938L112.46875 156.14063 156.4375 229.5625ZM439.64064-501.95314V-518.9375H521.84378V-501.95314L488.64064-487.96876 286.92189 0H265.42189L469.39064-487.96876 439.64064-501.95314ZM1.0625-501.95314V-518.9375H185.65625V-501.95314L155.39063-487.96876 326-115.890628 273.1875 29.46875 34.046876-487.96876 1.0625-501.95314Z"/>
</g>
<g id="font_3_144">
<path transform="matrix(.001,0,0,-.001,0,0)" d="M455.40626-325.48439C448.0521-369.81773 436.10939-405.6875 419.57814-433.09376 403.05729-460.5104 385.15626-480.17189 365.875-492.07814 346.60417-503.98439 328.63023-509.9375 311.95314-509.9375 288.43229-509.9375 264.73439-502.5625 240.85938-487.8125 216.9948-473.0729 196.41667-447.8229 179.125-412.0625 161.84375-376.3125 153.1198-325.69795 152.95313-260.21876 152.6198-165.67708 177.46875-98.6198 227.5-59.046876 277.54167-19.473958 334.70314-7.817707 398.98439-24.078125 463.26564-40.338544 511.14585-75.61979 542.625-129.92188L558.3594-120.921878C534.2031-78.78645 501.38023-46.09896 459.89064-22.859375 418.40104 .38020898 370.67189 12 316.70314 12 262.88023 12 215.39063 .96354296 174.23438-21.109375 133.08853-43.19271 101.265628-74.8125 78.765628-115.96875 56.27604-157.13542 45.03125-205.21875 45.03125-260.21876 45.03125-314.375 56.40104-361.8646 79.140628-402.6875 101.890628-443.52085 133.46353-475.10417 173.85938-497.4375 214.26563-519.7708 260.625-530.9375 312.9375-530.9375 377.59376-530.9375 431.75-514.7656 475.40626-482.42189 519.0625-450.08854 548.88546-404.92189 564.875-346.92189L463.39064-319.48439 455.40626-325.48439Z"/>
</g>
<g id="font_3_199">
<path transform="matrix(.001,0,0,-.001,0,0)" d="M204.1875-30.96875 224.67188-16.984375V0H114.109378 206.10938 74.046878V-16.984375L98.53125-30.96875V-487.96876L74.046878-501.95314V-518.9375H206.10938 204.1875V-30.96875ZM558.9219 0H455.8125V-16.984375L473.8125-30.96875V-326.65626C473.8125-384.02085 464.38023-425.78648 445.51564-451.95314 426.66148-478.13023 395.61979-487.21354 352.39064-479.20314 324.20314-473.69273 297.72917-460.3125 272.96876-439.0625 248.21875-417.8229 226.21875-391.91148 206.96875-361.32814 187.72917-330.75523 171.27083-297.71354 157.59375-262.20314V-321.73439C184.42708-377.52604 215.79166-423.83335 251.6875-460.65626 287.59376-497.4896 328.6146-518.41146 374.75-523.4219 423.90626-529.4427 463.8125-524.875 494.46876-509.71876 525.13546-494.5625 547.3802-471.35417 561.2031-440.09376 575.03646-408.84376 581.9531-371.03126 581.9531-326.65626V-30.96875L601.1875-16.984375V0H494.35939 558.9219Z"/>
</g>
</defs>
<g>

<use data-text="&#x003e;" href="#font_2_186" transform="matrix(107.26499,0,23.780077,-107.26499,28.864533,190.06845)"/>
<use data-text="o" href="#font_3_205" transform="matrix(107.26499,0,23.780077,-107.26499,85.66453,190.06845)"/>
<use data-text="p" href="#font_3_215" transform="matrix(107.26499,0,23.780077,-107.26499,147.06992,190.06845)"/>
<use data-text="p" href="#font_3_215" transform="matrix(107.26499,0,23.780077,-107.26499,214.61585,190.06845)"/>
<use data-text="&#xfffd;" href="#font_4_9" transform="matrix(107.26499,0,23.780077,-107.26499,282.1618,190.06845)"/>
<use data-text="y" href="#font_3_251" transform="matrix(107.26499,0,23.780077,-107.26499,319.00505,190.06845)"/>
<use data-text="c" href="#font_3_144" transform="matrix(107.26499,0,23.780077,-107.26499,367.10597,190.06845)"/>
<use data-text="o" href="#font_3_205" transform="matrix(107.26499,0,23.780077,-107.26499,424.41764,190.06845)"/>
<use data-text="n" href="#font_3_199" transform="matrix(107.26499,0,23.780077,-107.26499,485.82304,190.06845)"/>
</g>
</svg>
