<svg xmlns="http://www.w3.org/2000/svg" version="1.1"    viewBox="14.23999959257765 102.08 579.1999906010487 140">
<defs>
<g id="font_2_199">
<path transform="matrix(.001,0,0,-.001,0,0)" d="M222.82813-33.0625 244.35938-17.828125V0H136.9375 199.40625 71.53125V-17.828125L97.0625-33.0625V-489.64064L71.53125-504.875V-522.7031H199.40625 222.82813V-33.0625ZM549.1719 0H452.35939V-17.828125L470.35939-33.0625V-332C470.35939-387.6875 461.72917-428.44273 444.46876-454.26564 427.21876-480.08854 398.5521-489.41148 358.46876-482.23439 331.60417-477.21354 305.91667-463.89064 281.40626-442.26564 256.89585-420.64064 234.96355-394.34376 215.60938-363.375 196.26563-332.41667 180.09896-299.70314 167.10938-265.23439V-322.875C194.01563-380.84376 225.8229-428.41667 262.53126-465.59376 299.2396-502.77085 341.67189-523.5156 389.82814-527.8281 439.47398-533.0052 479.83335-527.69796 510.90626-511.90626 541.98959-496.125 564.5469-472.7604 578.5781-441.8125 592.6198-410.875 599.6406-374.27085 599.6406-332V-33.0625L619.40628-17.828125V0H517.2969 549.1719Z"/>
</g>
<g id="font_2_154">
<path transform="matrix(.001,0,0,-.001,0,0)" d="M42.9375-262.40626C42.9375-316.91667 54.692708-364.75 78.203128-405.90626 101.71355-447.0625 134.15625-478.81773 175.53125-501.17189 216.90625-523.52609 263.375-534.7031 314.9375-534.7031 404.8646-534.7031 472.83335-508.15104 518.84378-455.04689 564.86459-401.95314 585.9375-328.6823 582.0625-235.23438H458.125C458.125-310.56773 450.77085-367.14585 436.0625-404.96876 421.35417-442.79167 403.22398-470.52604 381.67189-488.17189 360.13023-505.81773 338.00523-514.3281 315.29689-513.7031 292.39064-513.0781 270.20314-505.28126 248.73438-490.3125 227.26563-475.35417 208.83333-450.10939 193.4375-414.57814 178.05208-379.05729 170.23958-328.33335 170-262.40626 169.76042-220.1354 176.88542-185.01042 191.375-157.03125 205.86458-129.05208 224.85417-106.375 248.34375-89 271.84376-71.625 296.98439-60.489583 323.76564-55.59375 348.85939-51.864583 376.0729-51.447919 405.40626-54.34375 434.7396-57.25 462.50523-65.171878 488.70314-78.109378 514.90109-91.05729 535.27609-110.21875 549.8281-135.59375L565.2344-125.9375C543.2344-82.6875 510.7604-48.989587 467.8125-24.84375 424.875-.70833209 375.21354 11.572917 318.82814 12 261.72398 12.427083 212.32813 1.5729179 170.64063-20.5625 128.96353-42.697919 97.26042-74.45833 75.53125-115.84375 53.802083-157.2396 42.9375-206.09375 42.9375-262.40626ZM570.0625-294.76564V-235.23438H131.46875V-251.0625L570.0625-294.76564Z"/>
</g>
<g id="font_3_9">
<path transform="matrix(.001,0,0,-.001,0,0)" d="M29.0625-522.7031C49.729169-537.1406 67.375-555.9375 82-579.09378 96.625-602.25 107.81771-627.2083 115.578128-653.96878 123.34896-680.73959 127.114589-706.75 126.875-732H235.76563C232.78646-679.375 215-629.6667 182.40625-582.875 178.91667-578.48959 174.39063-574.1198 168.82813-569.7656 153.8073-555.4531 137.36458-544.2969 119.5-536.2969 101.635417-528.2969 82.41146-521.4531 61.828126-515.7656L62.46875-511.70314 77.703128-513.3594C161.50522-519.3594 216.58333-522.47396 242.9375-522.7031H335.59376V-439.23439H232.23438V-207.9375C232.23438-161.27083 244-129.94792 267.53126-113.96875 291.0625-97.989589 318.60939-91.53125 350.17189-94.59375L382.17189-6.828125C320.09898 4.942709 269.875 1.6041679 231.5-16.84375 193.125-35.302087 166.09375-60.5 150.40625-92.4375 134.71875-124.38542 126.875-159.0625 126.875-196.46875V-439.23439H29.0625V-522.7031Z"/>
</g>
<g id="font_2_172">
<path transform="matrix(.001,0,0,-.001,0,0)" d="M532.1719 0H435.35939V-17.828125L453.35939-33.0625V-332C453.35939-387.25 444.72917-427.78648 427.46876-453.60939 410.21876-479.44273 381.5521-488.98439 341.46876-482.23439 314.60417-477.65104 288.91667-464.54167 264.40626-442.90626 239.89583-421.28126 217.96355-394.88023 198.60938-363.70314 179.26563-332.52604 163.09896-299.70314 150.10938-265.23439V-322.875C177.01563-381.27085 208.8229-429.05729 245.53125-466.23439 282.2396-503.41148 324.67189-523.9427 372.82814-527.8281 422.47398-532.1406 462.83335-526.51046 493.90626-510.9375 524.98959-495.375 547.5469-472.22917 561.5781-441.5 575.6198-410.77085 582.6406-374.27085 582.6406-332V-33.0625L600.6406-17.828125V0H503.82814 532.1719ZM216.70313-33.0625 234.70313-17.828125V0H137.875 169.76563 72.9375V-17.828125L90.9375-33.0625V-698.9375L69.40625-714.1719V-732H176.82813 216.70313V-33.0625Z"/>
</g>
<g id="font_2_218">
<path transform="matrix(.001,0,0,-.001,0,0)" d="M220.70313-33.0625 242.23438-17.828125V0H134.82813 197.29688 69.40625V-17.828125L94.9375-33.0625V-489.64064L69.40625-504.875V-522.7031H197.29688 220.70313V-33.0625ZM210.59375-379.70314C219.6875-414.92189 236.79167-446.07814 261.90626-473.17189 287.03126-500.27604 317.47398-518.47396 353.23439-527.7656 388.99479-537.0573 426.5625-533.7031 465.9375-517.7031L453-380.89064H432C415.40626-416.89064 391.35417-439.31773 359.84376-448.17189 328.34376-457.03648 298.7396-453.02604 271.03126-436.14064 243.32292-419.26564 226.4323-394.02085 220.35938-360.40626L210.59375-379.70314Z"/>
</g>
<g id="font_2_205">
<path transform="matrix(.001,0,0,-.001,0,0)" d="M323.23439 12C264.14064 12 213.4323 .04166794 171.10938-23.875 128.79688-47.802087 96.85417-80.40104 75.28125-121.671878 53.71875-162.95313 42.9375-209.39583 42.9375-261 42.9375-311.78126 54.99479-357.97398 79.109378-399.57814 103.234378-441.19273 136.61978-474.0104 179.26563-498.03126 221.91147-522.05209 269.90104-534.0625 323.23439-534.0625 379.54689-534.0625 428.84898-522.86459 471.14064-500.46876 513.4427-478.0729 546.1823-446.13023 569.3594-404.64064 592.53646-363.15104 604.125-315.27085 604.125-261 604.125-210.25 592.25-164.13022 568.5-122.640628 544.75-81.15104 511.61979-48.338544 469.10939-24.203125 426.60939-.06770706 377.98439 12 323.23439 12ZM340.64064-10.359375C371.07814-12.744792 396.85417-24.291666 417.96876-45 439.08335-65.708339 454.51564-95.03125 464.26564-132.96875 474.01564-170.90625 477.125-217.70313 473.59376-273.35939 470.0625-327.63023 460.79689-372.89064 445.79689-409.14064 430.79689-445.40104 411.14585-472.33335 386.84376-489.9375 362.5521-507.5521 335.3125-515.16146 305.125-512.7656 275.35417-510.80729 249.84896-499.13023 228.60938-477.73439 207.3802-456.33854 192-426.5521 182.46875-388.375 172.9375-350.20835 169.9375-303.75 173.46875-249 176.5625-193.78125 185.5625-148.21875 200.46875-112.3125 215.375-76.416667 234.85417-49.791669 258.90626-32.4375 282.96876-15.083332 310.21354-7.723958 340.64064-10.359375Z"/>
</g>
<g id="font_2_215">
<path transform="matrix(.001,0,0,-.001,0,0)" d="M222.10938 234.9375 246.82813 250.17188V268H129.17188 189.29688 71.640628V250.17188L96.359378 234.9375V-489.64064L73.40625-504.875V-522.7031H185.76563 222.10938V234.9375ZM378.875 8.125C335.89585 4.8229167 298.54167-8.317707 266.8125-31.296875 235.09375-54.276044 210.7552-85.08854 193.79688-123.734378 176.83855-162.38022 168.35938-208.1354 168.35938-261 168.35938-312.02085 177.25-357.26564 195.03125-396.73439 212.8125-436.20314 237.72916-467.36979 269.78126-490.23439 301.84376-513.09896 338.20835-526.17709 378.875-529.46878 428.95835-536.0625 476.08854-528.05209 520.2656-505.4375 564.4427-482.83335 599.82296-449.66667 626.40628-405.9375 653-362.21876 666.2969-313.90626 666.2969-261 666.2969-208.84375 653.1198-161.07813 626.7656-117.703128 600.41146-74.328128 565.1458-41.09896 520.96878-18.015625 476.79167 5.057293 429.4271 13.770834 378.875 8.125ZM379.23439-15.125C408.72398-14.416667 435.41148-23.1875 459.29689-41.4375 483.18229-59.697919 502.10417-87.47395 516.0625-124.765628 530.0208-162.0573 537-207.46875 537-261 537-312.91667 530.0208-357.29689 516.0625-394.14064 502.10417-430.98439 483.125-458.59376 459.125-476.96876 435.125-495.34376 408.49479-504.29689 379.23439-503.82814 350.21354-503.35939 323.99479-493.99479 300.57814-475.73439 277.17189-457.48439 258.71354-430.17189 245.20313-393.79689 231.6927-357.42189 224.9375-313.15626 224.9375-261 224.51042-207.90625 231.09896-163.00522 244.70313-126.296878 258.30729-89.58854 276.81773-62.057294 300.23439-43.703126 323.65104-25.348958 349.98439-15.822917 379.23439-15.125Z"/>
</g>
<g id="font_2_222">
<path transform="matrix(.001,0,0,-.001,0,0)" d="M378.125-387.70314C374.625-421.58854 362.96354-449.84376 343.14064-472.46876 323.31773-495.09376 298.625-506.625 269.0625-507.0625 244.55208-507.4896 223.85417-503.59376 206.96875-495.375 190.08333-487.16667 177.9427-476.42189 170.54688-463.14064 163.16146-449.86979 160.5677-435.97917 162.76563-421.46876 165.1927-405.78126 173.1302-392.60417 186.57813-381.9375 200.03646-371.27085 220.70833-360.07814 248.59375-348.35939 257.0625-344.16148 266.24479-340.23439 276.14064-336.57814 286.04689-332.93229 296.11979-328.89585 306.35939-324.46876 370.03648-298.625 416.6979-272.18229 446.34376-245.14063 476-218.10938 490.65104-183.19792 490.29689-140.40625 489.98439-107.354167 480.77604-79.4323 462.67189-56.640626 444.57814-33.859376 420.35417-16.828125 390-5.546875 359.64585 5.723959 326.56773 11.359375 290.76564 11.359375 238.45313 11.359375 189.9323-.83854106 145.20313-25.234375 100.484378-49.63021 72.359378-95.23958 60.828126-162.0625L161-174.53125 169.76563-167.46875C178.70313-113.73958 195.47396-74.1198 220.07813-48.609376 244.6927-23.109375 272.94273-10.59375 304.82814-11.0625 329.33854-11.291667 350.04167-15.640625 366.9375-24.109375 383.84376-32.588544 396.0521-44.161458 403.5625-58.828126 411.0729-73.49479 412.82814-89.453128 408.82814-106.703128 405.92189-119.609378 399.47917-130.52083 389.5-139.4375 379.52085-148.36458 364.5104-157.35417 344.46876-166.40625 333.25-171.70833 320.5521-177.28646 306.375-183.14063 292.20835-189.0052 277.90626-195.0573 263.46876-201.29688 221.15625-219.2552 186.94792-236.5677 160.84375-253.23438 134.75-269.90104 114.66146-289.15626 100.578128-311 86.50521-332.84376 79.6875-358.58854 80.125-388.23439 80.552089-417.17189 89.666667-442.6979 107.46875-464.8125 125.270839-486.9375 149.1823-504 179.20313-516 209.22396-528 242.36978-533.90109 278.64064-533.7031 325.34898-533.3177 367.78126-522.28128 405.9375-500.59376 444.09376-478.90626 470.68229-445.1979 485.70314-399.46876L387.59376-382.70314 378.125-387.70314Z"/>
</g>
</defs>
<g>

<use data-text="n" href="#font_2_199" transform="matrix(119.733028,0,0,-119.733028,15.691408,199.87815)" fill="#272626"/>
<use data-text="e" href="#font_2_154" transform="matrix(119.733028,0,0,-119.733028,88.07156,199.87815)" fill="#272626"/>
<use data-text="&#xfffd;" href="#font_3_9" transform="matrix(119.733028,0,0,-119.733028,153.62206,199.87815)" fill="#272626"/>
<use data-text="h" href="#font_2_172" transform="matrix(119.733028,0,0,-119.733028,196.40703,199.87815)" fill="#272626"/>
<use data-text="e" href="#font_2_154" transform="matrix(119.733028,0,0,-119.733028,266.51063,199.87815)" fill="#272626"/>
<use data-text="r" href="#font_2_218" transform="matrix(119.733028,0,0,-119.733028,332.06114,199.87815)" fill="#272626"/>
<use data-text="o" href="#font_2_205" transform="matrix(119.733028,0,0,-119.733028,381.67576,199.87815)" fill="#272626"/>
<use data-text="p" href="#font_2_215" transform="matrix(119.733028,0,0,-119.733028,449.5028,199.87815)" fill="#272626"/>
<use data-text="s" href="#font_2_222" transform="matrix(119.733028,0,0,-119.733028,524.6148,199.87815)" fill="#272626"/>
</g>
</svg>
