<svg width="188" height="402" viewBox="0 0 188 402" fill="none" xmlns="http://www.w3.org/2000/svg">
<path d="M93.7336 0L160.984 66.95C161.145 67.1084 161.273 67.2978 161.361 67.5073C161.448 67.7167 161.493 67.942 161.494 68.17V131.96C161.494 132.114 161.431 132.261 161.321 132.37C161.21 132.479 161.06 132.54 160.904 132.54H135.304C135.117 132.54 134.932 132.503 134.759 132.432C134.587 132.36 134.431 132.255 134.299 132.123C134.168 131.991 134.065 131.834 133.995 131.662C133.925 131.49 133.891 131.306 133.894 131.12C134.08 116.107 134.137 99.15 134.064 80.25C134.057 78.7767 133.51 77.5133 132.424 76.46C120.684 65.0733 108.78 53.31 96.7136 41.17C95.8536 40.3033 94.8869 39.5567 93.8136 38.93C93.4932 38.7433 93.1199 38.6684 92.7523 38.7173C92.3848 38.7662 92.044 38.936 91.7836 39.2C79.6703 51.4333 67.4669 63.6133 55.1736 75.74C53.8736 77.02 53.1702 78.6033 53.0636 80.49C52.7369 86.2167 52.6536 93.8033 52.8136 103.25C52.8336 104.663 53.6002 105.373 55.1136 105.38C63.0736 105.413 71.1269 105.357 79.2736 105.21C79.4655 105.207 79.6486 105.128 79.7834 104.99C79.9181 104.851 79.9936 104.665 79.9936 104.47V79.12C79.9936 78.8548 80.0989 78.6004 80.2865 78.4129C80.474 78.2254 80.7283 78.12 80.9936 78.12H105.464C105.904 78.12 106.326 78.2938 106.637 78.6033C106.949 78.9127 107.124 79.3324 107.124 79.77V130.26C107.124 130.886 107.308 131.498 107.654 132.02C108.66 133.527 110.317 135.427 112.624 137.72C121.264 146.32 136.06 161.22 157.014 182.42C159.094 184.527 160.474 187.303 161.154 190.75C166.927 220.17 175.11 261.973 185.704 316.16C186.517 320.313 187.007 322.97 187.174 324.13C187.251 324.658 187.204 325.196 187.038 325.703C186.871 326.21 186.589 326.671 186.214 327.05L140.724 373.12C140.653 373.189 140.605 373.278 140.585 373.375C140.566 373.472 140.576 373.572 140.614 373.664C140.653 373.756 140.718 373.835 140.801 373.892C140.885 373.948 140.983 373.979 141.084 373.98H177.424C177.51 373.98 177.596 373.997 177.676 374.031C177.756 374.065 177.829 374.114 177.89 374.176C177.952 374.238 178 374.312 178.033 374.394C178.067 374.475 178.084 374.562 178.084 374.65V400.83C178.084 400.9 178.07 400.969 178.043 401.033C178.017 401.097 177.978 401.156 177.928 401.205C177.879 401.254 177.821 401.293 177.756 401.32C177.692 401.346 177.623 401.36 177.554 401.36H9.08359C9.03763 401.36 8.99208 401.351 8.94962 401.334C8.90715 401.317 8.86859 401.292 8.83609 401.26C8.80359 401.229 8.77782 401.191 8.76023 401.15C8.74264 401.109 8.73355 401.065 8.73355 401.02V374.68C8.73355 374.524 8.79576 374.373 8.90641 374.263C9.01705 374.152 9.1671 374.09 9.32358 374.09H46.2236C46.3139 374.09 46.4022 374.063 46.4775 374.013C46.5527 373.963 46.6116 373.892 46.6468 373.809C46.682 373.726 46.6919 373.634 46.6753 373.546C46.6588 373.457 46.6164 373.375 46.5536 373.31C34.4836 361.27 15.8336 342.85 1.39359 327.74C0.320255 326.62 -0.133064 325.483 0.0336029 324.33C0.646936 320.137 2.10025 312.193 4.39359 300.5C10.9203 267.22 17.5069 233.557 24.1536 199.51C25.2136 194.057 26.0136 190.207 26.5536 187.96C26.7191 187.271 26.996 186.613 27.3736 186.01C28.5669 184.117 30.1102 182.237 32.0036 180.37C47.6902 164.89 62.9703 149.567 77.8436 134.4C77.9955 134.245 78.0982 134.049 78.1387 133.835C78.1792 133.622 78.1558 133.402 78.0713 133.202C77.9869 133.002 77.8452 132.832 77.6641 132.712C77.483 132.592 77.2706 132.529 77.0536 132.53H26.2836C26.0926 132.53 25.9095 132.455 25.7744 132.322C25.6394 132.189 25.5636 132.008 25.5636 131.82V68.63C25.5634 68.2055 25.6473 67.7855 25.8104 67.3941C25.9735 67.0027 26.2125 66.6478 26.5136 66.35L92.9736 0H93.7336ZM93.4736 317.73C101.014 317.723 105.35 317.73 106.484 317.75C106.633 317.753 106.775 317.814 106.88 317.92C106.985 318.027 107.044 318.171 107.044 318.32V345.44C107.044 345.758 107.17 346.063 107.395 346.289C107.62 346.514 107.925 346.64 108.244 346.64H127.164C127.485 346.64 127.801 346.561 128.084 346.41C129.377 345.71 131.044 344.303 133.084 342.19C137.324 337.803 144.154 330.89 153.574 321.45C155.46 319.563 156.947 317.837 158.034 316.27C158.17 316.074 158.264 315.852 158.313 315.619C158.361 315.385 158.361 315.144 158.314 314.91L134.544 201.5C134.443 201.022 134.201 200.585 133.85 200.246C133.498 199.907 133.054 199.682 132.574 199.6C131.62 199.44 130.557 199.34 129.384 199.3C124.65 199.167 112.644 199.107 93.3636 199.12C74.0769 199.14 62.0703 199.223 57.3436 199.37C56.1703 199.41 55.1069 199.51 54.1536 199.67C53.6734 199.752 53.2289 199.977 52.8776 200.316C52.5263 200.655 52.2845 201.092 52.1836 201.57L28.6236 315.03C28.5762 315.264 28.5766 315.505 28.6247 315.739C28.6728 315.972 28.7677 316.194 28.9036 316.39C29.9903 317.95 31.4802 319.673 33.3736 321.56C42.8069 330.98 49.6503 337.88 53.9036 342.26C55.9436 344.373 57.6103 345.777 58.9036 346.47C59.1859 346.621 59.5019 346.7 59.8236 346.7L78.7436 346.67C78.902 346.67 79.0589 346.639 79.2051 346.578C79.3514 346.517 79.4841 346.427 79.5957 346.315C79.7072 346.203 79.7954 346.069 79.8551 345.922C79.9148 345.776 79.9449 345.618 79.9436 345.46L79.8936 318.34C79.8936 318.191 79.9522 318.047 80.057 317.94C80.1617 317.834 80.3041 317.773 80.4536 317.77C81.5936 317.75 85.9336 317.737 93.4736 317.73Z" fill="black"/>
<path d="M93.333 223.811C93.713 223.811 94.1163 224.181 94.543 224.921C95.9363 227.381 96.843 229.057 97.263 229.951C102.743 241.651 110.12 256.887 119.393 275.661C121.173 279.261 121.533 282.011 119.663 285.321C117.736 288.741 114.416 293.741 109.703 300.321C108.396 302.134 106.696 303.137 104.603 303.331C102.696 303.511 99.0264 303.607 93.5931 303.621C88.1531 303.641 84.4797 303.567 82.573 303.401C80.4797 303.221 78.773 302.227 77.453 300.421C72.6997 293.874 69.3464 288.897 67.393 285.491C65.503 282.191 65.853 279.441 67.603 275.821C76.7563 256.994 84.0364 241.711 89.443 229.971C89.8564 229.077 90.753 227.397 92.133 224.931C92.553 224.184 92.953 223.811 93.333 223.811Z" fill="#F5D610"/>
</svg>
