<svg width="390" height="514" viewBox="0 0 390 514" fill="none" xmlns="http://www.w3.org/2000/svg">
<path d="M105.233 0C105.859 0 109.439 0.230002 115.973 0.690002C126.186 1.40334 136.439 3.86997 146.733 8.08997C148.393 8.76997 149.139 9.95663 148.973 11.65C147.406 27.5633 146.086 40.7167 145.013 51.11C144.976 51.4502 144.815 51.7648 144.563 51.9936C144.31 52.2224 143.982 52.3493 143.643 52.35C130.723 52.4233 117.896 52.4533 105.163 52.44C92.4359 52.42 79.6125 52.36 66.6925 52.26C66.3512 52.259 66.0223 52.1307 65.7693 51.8998C65.5163 51.669 65.3571 51.352 65.3225 51.01C64.2759 40.6167 62.9892 27.46 61.4625 11.54C61.3025 9.84664 62.0525 8.65998 63.7125 7.97998C74.0125 3.78665 84.2725 1.34664 94.4925 0.659973C101.019 0.219973 104.599 0 105.233 0Z" fill="black"/>
<path d="M110.344 215.959C106.578 228.246 105.771 241.129 107.924 254.609C113.034 286.599 135.414 312.379 165.294 324.829C175.514 329.076 187.741 334.016 201.974 339.649C255.501 360.842 296.338 377.022 324.484 388.189C326.844 389.119 328.264 390.879 330.064 392.649C353.444 415.589 369.101 431.066 377.034 439.079C393.104 455.309 394.074 479.939 378.004 496.269C377.898 496.379 377.753 496.444 377.6 496.45C377.447 496.455 377.298 496.401 377.184 496.299C374.898 494.199 373.024 492.409 371.564 490.929C344.578 463.556 318.788 437.846 294.194 413.799C293.861 413.479 293.658 413.306 293.584 413.279C293.537 413.265 293.486 413.265 293.439 413.28C293.392 413.295 293.35 413.323 293.319 413.362C293.288 413.401 293.269 413.447 293.264 413.497C293.26 413.546 293.27 413.596 293.294 413.639C299.708 425.359 298.838 436.429 290.684 446.849C290.546 447.024 290.372 447.168 290.175 447.271C289.977 447.375 289.76 447.436 289.538 447.45C289.315 447.464 289.092 447.431 288.883 447.354C288.674 447.276 288.484 447.155 288.324 446.999L225.684 385.129C225.652 385.098 225.612 385.077 225.568 385.068C225.524 385.06 225.478 385.064 225.437 385.081C225.395 385.098 225.36 385.127 225.335 385.164C225.309 385.201 225.295 385.244 225.294 385.289V444.719C225.294 445.232 225.097 445.723 224.744 446.089L183.324 488.929C183.278 488.981 183.247 489.045 183.237 489.114C183.226 489.183 183.236 489.253 183.264 489.317C183.293 489.38 183.339 489.434 183.398 489.472C183.456 489.509 183.525 489.529 183.594 489.529C191.881 489.316 199.258 489.292 205.724 489.459C218.064 489.769 225.774 500.589 226.094 512.409C226.097 512.528 226.076 512.645 226.032 512.756C225.989 512.866 225.924 512.967 225.841 513.051C225.758 513.136 225.659 513.203 225.549 513.249C225.44 513.295 225.323 513.319 225.204 513.319H79.0642C78.9882 513.318 78.9131 513.301 78.8442 513.269C78.7753 513.237 78.7141 513.191 78.6648 513.133C78.6155 513.075 78.5792 513.007 78.5584 512.934C78.5376 512.861 78.5327 512.784 78.5442 512.709C80.5242 499.449 91.5042 489.499 104.974 489.479C117.714 489.452 133.508 489.459 152.354 489.499C152.562 489.499 152.767 489.455 152.956 489.371C153.146 489.286 153.315 489.163 153.454 489.009L202.784 435.149C202.848 435.081 202.886 434.991 202.889 434.898C202.893 434.804 202.863 434.712 202.804 434.639L162.764 382.879C162.58 382.643 162.346 382.451 162.079 382.32C161.812 382.188 161.52 382.119 161.224 382.119H125.534C124.771 382.119 124.036 381.822 123.484 381.289C118.911 376.896 114.964 373.049 111.644 369.749C92.2042 350.449 65.1542 323.582 30.4942 289.149C29.6809 288.336 29.2775 287.259 29.2842 285.919C29.3909 226.746 29.3942 188.332 29.2942 170.679C29.2942 170.581 29.2552 170.487 29.1858 170.417C29.1165 170.348 29.0224 170.309 28.9242 170.309H0.554195C0.448421 170.31 0.344684 170.28 0.255367 170.223C0.16605 170.167 0.0949511 170.086 0.0506244 169.99C0.00629763 169.893 -0.00939609 169.787 0.00542785 169.682C0.0202518 169.577 0.064973 169.479 0.134212 169.399L41.8042 120.539C41.8654 120.468 41.905 120.381 41.9182 120.288C41.9315 120.195 41.9178 120.101 41.8788 120.015C41.8399 119.93 41.7773 119.858 41.6985 119.807C41.6197 119.756 41.5279 119.729 41.4342 119.729H27.4842C27.3933 119.73 27.3039 119.705 27.227 119.657C27.15 119.608 27.0888 119.539 27.0507 119.456C27.0126 119.373 26.9992 119.282 27.0123 119.192C27.0253 119.102 27.0642 119.017 27.1242 118.949L66.6942 72.549C66.7626 72.4693 66.8062 72.3717 66.82 72.2678C66.8337 72.1638 66.817 72.0577 66.7718 71.9621C66.7267 71.8665 66.6549 71.7853 66.565 71.7281C66.475 71.6708 66.3707 71.6399 66.2642 71.639H29.8542C29.778 71.639 29.7026 71.624 29.6323 71.5948C29.5619 71.5657 29.4979 71.523 29.4441 71.4691C29.3902 71.4153 29.3475 71.3513 29.3184 71.2809C29.2892 71.2106 29.2742 71.1352 29.2742 71.059V58.709C29.2742 58.5764 29.3279 58.4492 29.4236 58.3555C29.5192 58.2617 29.6489 58.209 29.7842 58.209H181.924C181.989 58.209 182.052 58.2217 182.112 58.2463C182.171 58.2709 182.225 58.307 182.271 58.3525C182.316 58.398 182.352 58.452 182.377 58.5115C182.402 58.5709 182.414 58.6347 182.414 58.699V71.179C182.414 71.3169 182.358 71.4492 182.259 71.5467C182.16 71.6442 182.025 71.699 181.884 71.699H145.534C145.452 71.6989 145.371 71.7236 145.303 71.7699C145.235 71.8162 145.182 71.882 145.152 71.9586C145.122 72.0352 145.116 72.1192 145.134 72.1995C145.152 72.2799 145.194 72.3528 145.254 72.409L155.384 82.199C155.937 82.7391 156.646 83.0953 157.414 83.219L208.994 91.869C209.432 91.9432 209.845 92.1184 210.201 92.3807C210.557 92.643 210.846 92.9851 211.044 93.379L225.434 122.219C225.496 122.342 225.528 122.478 225.53 122.615C225.531 122.753 225.501 122.889 225.442 123.013C225.383 123.136 225.297 123.244 225.19 123.329C225.083 123.413 224.958 123.471 224.824 123.499L144.844 140.259C144.638 140.301 144.453 140.413 144.32 140.577C144.187 140.741 144.114 140.947 144.114 141.159V169.609C144.114 169.734 144.164 169.853 144.252 169.941C144.34 170.029 144.46 170.079 144.584 170.079H179.214C179.894 170.079 180.544 170.345 181.024 170.819L331.464 319.399C331.539 319.474 331.597 319.564 331.635 319.663C331.673 319.762 331.69 319.868 331.684 319.974C331.678 320.08 331.651 320.185 331.602 320.28C331.554 320.376 331.487 320.461 331.404 320.529C322.614 327.779 311.134 330.159 300.414 325.969C298.494 325.216 296.548 324.376 294.574 323.449C294.524 323.415 294.462 323.401 294.402 323.413C294.342 323.424 294.289 323.459 294.254 323.509C294.22 323.559 294.207 323.621 294.218 323.681C294.229 323.741 294.264 323.795 294.314 323.829L380.094 406.769C380.155 406.833 380.193 406.916 380.199 407.004C380.206 407.092 380.182 407.179 380.131 407.252C380.08 407.324 380.006 407.376 379.921 407.399C379.835 407.422 379.745 407.415 379.664 407.379C372.211 403.812 364.101 400.022 355.334 396.009C353.248 395.049 320.528 379.382 257.174 349.009C213.828 328.222 185.731 314.836 172.884 308.849C164.304 304.842 157.761 301.369 153.254 298.429C147.181 294.449 141.464 289.746 136.104 284.319C118.314 266.309 109.634 241.199 110.664 216.009C110.671 215.967 110.66 215.923 110.635 215.889C110.61 215.854 110.572 215.831 110.529 215.824C110.487 215.817 110.443 215.828 110.409 215.853C110.374 215.879 110.351 215.917 110.344 215.959Z" fill="black"/>
</svg>
