<svg width="407" height="401" viewBox="0 0 407 401" fill="none" xmlns="http://www.w3.org/2000/svg">
<path d="M195.482 0C219.328 0.606667 242.635 5.58333 265.402 14.93C267.575 15.8233 268.542 17.4267 268.302 19.74C264.955 52.02 262.475 76.6533 260.862 93.64C260.829 93.9574 260.681 94.2516 260.444 94.4659C260.208 94.6801 259.901 94.7992 259.582 94.8L118.952 94.68C118.711 94.6793 118.477 94.5994 118.287 94.4528C118.097 94.3062 117.961 94.1013 117.902 93.87C117.768 93.39 117.618 92.2667 117.452 90.5C115.585 70.6933 113.228 46.8633 110.382 19.01C110.222 17.4433 110.798 16.32 112.112 15.64C117.618 12.82 124.658 10.1667 133.232 7.68C149.725 2.88667 166.612 0.326667 183.892 0H195.482Z" fill="black"/>
<path d="M0 312.649V310.339C5.48 303.152 9.69 297.829 12.63 294.369C33.9367 269.289 54.5933 244.566 74.6 220.199C74.6996 220.077 74.7627 219.929 74.782 219.772C74.8014 219.615 74.7762 219.456 74.7094 219.313C74.6426 219.17 74.5369 219.049 74.4044 218.964C74.2718 218.878 74.1178 218.831 73.96 218.829C67.6333 218.729 59.2233 218.672 48.73 218.659C48.3233 218.659 48.1133 218.456 48.1 218.049C48.0933 217.882 48.19 217.669 48.39 217.409C51.3433 213.629 55.49 208.602 60.83 202.329C87.27 171.269 106.55 148.216 118.67 133.169C119.143 132.576 119.607 131.842 120.06 130.969C120.113 130.864 120.138 130.748 120.133 130.631C120.128 130.514 120.094 130.4 120.033 130.3C119.972 130.2 119.886 130.117 119.784 130.059C119.682 130.001 119.567 129.97 119.45 129.969H53.26C53.0213 129.969 52.7924 129.874 52.6236 129.705C52.4548 129.537 52.36 129.308 52.36 129.069V107.269C52.36 107.075 52.4369 106.89 52.5738 106.753C52.7107 106.616 52.8964 106.539 53.09 106.539H327.49C327.814 106.539 328.124 106.668 328.353 106.896C328.581 107.125 328.71 107.435 328.71 107.759V129.119C328.71 129.337 328.624 129.545 328.47 129.699C328.316 129.853 328.107 129.939 327.89 129.939H262.17C261.966 129.941 261.767 130.003 261.598 130.118C261.429 130.232 261.297 130.394 261.219 130.582C261.141 130.771 261.121 130.979 261.16 131.179C261.199 131.379 261.297 131.564 261.44 131.709C268.853 139.089 274.637 144.846 278.79 148.979C280.077 150.252 281.463 151.232 282.95 151.919C283.123 151.999 283.308 152.056 283.5 152.089C308.787 156.256 337.137 161.039 368.55 166.439C373.443 167.279 376.637 167.926 378.13 168.379C379.237 168.712 380.107 169.512 380.74 170.779C382.873 175.039 391.5 192.739 406.62 223.879C406.827 224.306 406.93 224.619 406.93 224.819C406.923 225.232 406.723 225.482 406.33 225.569C360.457 235.676 312.74 245.872 263.18 256.159C262.107 256.379 261.243 256.609 260.59 256.849C260.216 256.981 259.892 257.227 259.662 257.551C259.433 257.875 259.31 258.262 259.31 258.659V400.249C259.31 400.35 259.283 400.449 259.229 400.535C259.176 400.622 259.1 400.691 259.009 400.736C258.919 400.781 258.817 400.799 258.717 400.789C258.616 400.779 258.52 400.741 258.44 400.679L219.15 371.269C218.994 371.155 218.803 371.1 218.61 371.115C218.418 371.13 218.237 371.213 218.1 371.349L193.38 396.379C193.308 396.451 193.22 396.506 193.123 396.538C193.026 396.57 192.923 396.579 192.823 396.565C192.723 396.55 192.627 396.512 192.545 396.454C192.463 396.395 192.396 396.318 192.35 396.229L168.63 350.609C168.522 350.404 168.373 350.224 168.192 350.08C168.011 349.936 167.801 349.832 167.578 349.775C167.354 349.717 167.121 349.708 166.894 349.746C166.667 349.785 166.451 349.871 166.26 349.999L130.38 373.919C130.282 373.985 130.17 374.028 130.053 374.043C129.936 374.058 129.816 374.046 129.705 374.007C129.593 373.968 129.492 373.904 129.41 373.819C129.327 373.735 129.266 373.632 129.23 373.519L116.03 333.299C115.961 333.089 115.85 332.895 115.703 332.729C115.556 332.563 115.377 332.43 115.176 332.336C114.976 332.242 114.758 332.191 114.537 332.184C114.316 332.178 114.096 332.217 113.89 332.299L61.41 353.349C61.3222 353.383 61.228 353.397 61.1342 353.39C61.0403 353.383 60.9493 353.354 60.8678 353.307C60.7862 353.26 60.7163 353.196 60.663 353.118C60.6098 353.041 60.5746 352.952 60.56 352.859L54.45 313.609C54.4048 313.332 54.2632 313.08 54.0506 312.899C53.838 312.717 53.5683 312.618 53.29 312.619L0 312.649Z" fill="black"/>
</svg>
