<svg width="1056" height="1269" viewBox="0 0 1056 1269" fill="none" xmlns="http://www.w3.org/2000/svg">
<path d="M370.233 0C404.948 0 436.832 5.70133 468.211 19.7222C468.902 20.0295 469.479 20.5502 469.858 21.21C470.237 21.8699 470.4 22.6351 470.322 23.3964L460.862 118.587C460.831 118.98 460.643 119.347 460.338 119.613C460.032 119.88 459.631 120.026 459.215 120.022C458.652 119.994 428.991 119.994 370.233 120.022C311.475 120.022 281.814 120.037 281.251 120.065C280.828 120.067 280.421 119.915 280.114 119.64C279.807 119.365 279.625 118.988 279.604 118.587L270.102 23.3964C270.028 22.6302 270.196 21.8613 270.583 21.2009C270.97 20.5405 271.556 20.0227 272.256 19.7222C303.591 5.70133 335.476 0 370.233 0Z" fill="black"/>
<path d="M818.489 784.246C818.394 784.168 818.271 784.131 818.149 784.143C818.026 784.154 817.913 784.214 817.834 784.31C817.756 784.405 817.719 784.527 817.73 784.65C817.742 784.773 817.803 784.886 817.898 784.964L1053.64 1020.7C1053.81 1020.88 1053.93 1021.1 1053.97 1021.35C1054.02 1021.59 1054 1021.84 1053.9 1022.07C1053.81 1022.3 1053.65 1022.5 1053.44 1022.64C1053.24 1022.78 1053 1022.85 1052.75 1022.86H966.258C965.971 1022.86 965.691 1022.95 965.453 1023.11C965.215 1023.27 965.029 1023.49 964.917 1023.76C964.805 1024.02 964.772 1024.31 964.823 1024.59C964.873 1024.88 965.005 1025.14 965.202 1025.35L1053.64 1113.78C1055.15 1115.29 1056 1117.34 1056 1119.48V1266.03C1055.99 1266.31 1055.91 1266.58 1055.75 1266.82C1055.59 1267.05 1055.37 1267.24 1055.11 1267.35C1054.85 1267.45 1054.57 1267.48 1054.3 1267.43C1054.03 1267.37 1053.78 1267.24 1053.59 1267.04L818.827 1032.27C818.748 1032.18 818.635 1032.12 818.513 1032.11C818.39 1032.09 818.268 1032.13 818.172 1032.21C818.077 1032.29 818.017 1032.4 818.005 1032.52C817.993 1032.65 818.03 1032.77 818.109 1032.86C837.057 1065.33 835.185 1096.09 812.492 1125.14C812.156 1125.57 811.731 1125.93 811.245 1126.19C810.759 1126.44 810.224 1126.59 809.676 1126.63C809.128 1126.66 808.579 1126.57 808.067 1126.37C807.555 1126.18 807.091 1125.87 806.706 1125.48L643.481 962.295C643.28 962.095 643.025 961.959 642.747 961.904C642.468 961.849 642.18 961.877 641.918 961.985C641.656 962.094 641.432 962.277 641.275 962.513C641.117 962.748 641.032 963.025 641.031 963.309V1120.45C641.03 1121.26 640.711 1122.04 640.145 1122.61L525.486 1237.27C525.336 1237.42 525.236 1237.62 525.197 1237.83C525.159 1238.04 525.184 1238.26 525.27 1238.46C525.356 1238.66 525.498 1238.83 525.679 1238.95C525.86 1239.06 526.072 1239.13 526.288 1239.12H584.145C584.773 1239.12 585.374 1239.37 585.818 1239.82C586.261 1240.26 586.51 1240.86 586.51 1241.49V1266.83C586.51 1267.37 586.297 1267.88 585.917 1268.26C585.537 1268.64 585.021 1268.85 584.483 1268.85H390.893C388.916 1268.85 387.02 1268.08 385.614 1266.7L357.53 1238.62C357.316 1238.4 357.06 1238.22 356.776 1238.1C356.491 1237.98 356.185 1237.92 355.875 1237.92C355.564 1237.92 355.256 1237.98 354.967 1238.1C354.679 1238.22 354.416 1238.4 354.194 1238.62L325.772 1267.04C325.234 1267.58 324.505 1267.88 323.745 1267.88C322.985 1267.88 322.256 1267.58 321.718 1267.04L304.614 1249.98C304.057 1249.42 303.744 1248.66 303.744 1247.87C303.744 1247.07 304.057 1246.32 304.614 1245.75L353.941 1196.43C354.45 1195.93 355.129 1195.66 355.832 1195.66C356.535 1195.66 357.206 1195.93 357.699 1196.43L398.748 1237.52C399.803 1238.55 401.212 1239.12 402.676 1239.12H478.355C479.253 1239.12 480.14 1238.95 480.966 1238.61C481.792 1238.27 482.541 1237.77 483.17 1237.14L618.902 1101.41C619.046 1101.27 619.161 1101.11 619.24 1100.92C619.318 1100.74 619.358 1100.54 619.358 1100.34C619.358 1100.14 619.318 1099.94 619.24 1099.75C619.161 1099.57 619.046 1099.4 618.902 1099.25L482.325 962.675C481.441 961.791 480.389 961.09 479.23 960.612C478.07 960.133 476.826 959.887 475.568 959.888H253.936C253.039 959.889 252.148 959.71 251.315 959.362C250.481 959.014 249.722 958.504 249.079 957.861L179.524 888.305C179.388 888.174 179.217 888.085 179.032 888.049C178.846 888.013 178.654 888.032 178.479 888.104C178.304 888.176 178.154 888.297 178.047 888.453C177.94 888.608 177.881 888.792 177.877 888.981V914.362C177.877 914.734 177.804 915.102 177.661 915.445C177.519 915.788 177.311 916.1 177.048 916.363C176.785 916.626 176.473 916.834 176.13 916.976C175.787 917.118 175.419 917.192 175.047 917.192H150.806C150.022 917.192 149.27 916.885 148.716 916.338C148.162 915.792 147.85 915.051 147.85 914.278V859.292C147.849 857.613 147.18 856.002 145.992 854.815L104.436 813.26C104.269 813.095 104.072 812.964 103.856 812.875C103.64 812.786 103.409 812.74 103.178 812.74C102.946 812.74 102.718 812.786 102.506 812.875C102.294 812.964 102.103 813.095 101.944 813.26L61.1907 854.013C59.4878 855.718 58.5309 858.012 58.5301 860.39V885.94C58.5301 886.31 58.6814 886.664 58.9507 886.926C59.2199 887.187 59.5852 887.334 59.966 887.334H86.6142C86.7916 887.334 86.9674 887.3 87.1314 887.234C87.2953 887.169 87.4443 887.072 87.5698 886.951C87.6953 886.829 87.7948 886.685 87.8628 886.526C87.9307 886.367 87.9656 886.197 87.9656 886.025V859.292C87.9656 858.609 88.237 857.954 88.7201 857.47C89.2032 856.987 89.8584 856.716 90.5417 856.716H115.585C116.347 856.716 117.077 857.014 117.616 857.545C118.154 858.075 118.457 858.795 118.457 859.545V913.18C118.458 915.778 119.49 918.28 121.329 920.148L173.189 972.008C175.419 974.238 176.932 977.06 177.539 980.117L206.552 1128.05C206.682 1128.7 206.646 1129.38 206.447 1130.02C206.248 1130.66 205.893 1131.25 205.412 1131.73L155.494 1181.65C155.36 1181.78 155.27 1181.96 155.236 1182.15C155.202 1182.34 155.224 1182.53 155.301 1182.71C155.378 1182.89 155.506 1183.04 155.668 1183.14C155.83 1183.24 156.02 1183.3 156.212 1183.29H194.221C194.803 1183.29 195.361 1183.52 195.773 1183.94C196.185 1184.35 196.417 1184.91 196.417 1185.49V1211.21C196.417 1211.76 196.198 1212.28 195.81 1212.67C195.422 1213.06 194.896 1213.28 194.347 1213.28H11.0617C10.7705 1213.28 10.4913 1213.16 10.2853 1212.96C10.0794 1212.75 9.96371 1212.47 9.96371 1212.18V1184.6C9.96371 1184.24 10.1016 1183.9 10.3471 1183.65C10.5926 1183.39 10.9257 1183.25 11.2729 1183.25H50.5061C50.6595 1183.24 50.8078 1183.19 50.9333 1183.11C51.0588 1183.02 51.1563 1182.89 51.2141 1182.75C51.2719 1182.61 51.2876 1182.45 51.2594 1182.3C51.2313 1182.15 51.1603 1182.01 51.0551 1181.9L1.89744 1132.7C1.14436 1131.94 0.588705 1131.01 0.27941 1129.99C-0.0298839 1128.97 -0.0833304 1127.88 0.123722 1126.83L28.7568 980.919C29.4176 977.507 31.081 974.386 33.529 971.966L85.9807 919.514C86.1798 919.323 86.3152 919.076 86.3697 918.806C86.4242 918.536 86.3955 918.254 86.2871 917.997C86.1786 917.739 85.9954 917.517 85.7605 917.359C85.5256 917.201 85.2496 917.113 84.9672 917.107H30.7417C30.4422 917.107 30.1456 917.048 29.869 916.934C29.5923 916.819 29.3409 916.651 29.1291 916.439C28.9174 916.228 28.7493 915.976 28.6347 915.699C28.5201 915.423 28.4612 915.126 28.4612 914.827V848.143C28.4618 845.735 29.4188 843.426 31.1218 841.724L101.269 771.577C101.775 771.077 102.457 770.796 103.169 770.796C103.881 770.796 104.563 771.077 105.069 771.577L270.533 937.041C270.937 937.443 271.484 937.669 272.053 937.669C272.623 937.669 273.17 937.443 273.574 937.041L363.654 847.003C364.048 846.596 364.27 846.053 364.27 845.491C364.27 844.93 364.048 844.396 363.654 844.004L198.95 679.343C198.133 678.527 197.484 677.558 197.042 676.493C196.6 675.427 196.373 674.286 196.374 673.135V398.713C196.374 398.344 196.227 397.989 195.966 397.728C195.705 397.467 195.35 397.32 194.981 397.32H128.888C128.633 397.32 128.384 397.248 128.168 397.113C127.953 396.977 127.78 396.783 127.669 396.554C127.559 396.324 127.516 396.068 127.545 395.815C127.573 395.562 127.673 395.323 127.832 395.124L224.754 279.705C224.891 279.529 224.977 279.318 225.003 279.096C225.029 278.875 224.994 278.651 224.901 278.452C224.808 278.253 224.662 278.087 224.479 277.972C224.296 277.857 224.084 277.799 223.867 277.804H191.982C191.774 277.81 191.569 277.754 191.393 277.644C191.217 277.533 191.077 277.373 190.992 277.184C190.906 276.995 190.878 276.784 190.911 276.579C190.945 276.374 191.038 276.183 191.18 276.031L282.189 167.58C282.357 167.369 282.465 167.114 282.499 166.846C282.533 166.578 282.493 166.307 282.383 166.064C282.272 165.821 282.096 165.616 281.875 165.474C281.654 165.331 281.397 165.256 281.133 165.257H197.895C197.491 165.257 197.105 165.097 196.82 164.812C196.535 164.526 196.374 164.14 196.374 163.737V136.624C196.374 136.277 196.508 135.944 196.745 135.698C196.983 135.452 197.305 135.315 197.641 135.315H545.25C545.81 135.315 546.347 135.537 546.743 135.933C547.139 136.329 547.362 136.866 547.362 137.426V163.103C547.362 163.674 547.139 164.222 546.743 164.626C546.347 165.03 545.81 165.257 545.25 165.257H462.223C461.986 165.253 461.754 165.321 461.557 165.451C461.359 165.58 461.205 165.766 461.114 165.984C461.023 166.203 461 166.443 461.047 166.675C461.094 166.906 461.209 167.119 461.378 167.284L485.028 190.891C486.511 192.376 488.43 193.364 490.518 193.721L608.091 213.147C609.15 213.332 610.15 213.76 611.008 214.399C611.867 215.037 612.56 215.867 613.032 216.822L646.31 284.435C646.425 284.67 646.485 284.928 646.486 285.19C646.486 285.452 646.427 285.71 646.313 285.946C646.2 286.182 646.034 286.389 645.828 286.551C645.623 286.714 645.384 286.828 645.128 286.884L461.674 325.737C460.956 325.884 460.311 326.271 459.849 326.833C459.387 327.395 459.136 328.097 459.14 328.82V394.744C459.14 395.438 459.416 396.104 459.907 396.595C460.398 397.086 461.064 397.362 461.758 397.362H536.93C540.634 397.361 544.185 398.818 546.813 401.416L920.394 774.998C920.628 775.241 920.809 775.53 920.926 775.847C921.043 776.164 921.093 776.502 921.073 776.839C921.053 777.176 920.964 777.505 920.811 777.806C920.658 778.107 920.444 778.373 920.183 778.587C887.158 804.855 853.26 806.742 818.489 784.246ZM103.211 1120.92C107.603 1120.92 111.967 1120.9 116.303 1120.88C116.573 1120.87 116.841 1120.92 117.092 1121.02C117.343 1121.12 117.571 1121.26 117.764 1121.45C117.956 1121.64 118.11 1121.87 118.214 1122.12C118.319 1122.37 118.372 1122.63 118.372 1122.9V1150.61C118.372 1151.28 118.639 1151.92 119.115 1152.4C119.59 1152.87 120.234 1153.14 120.906 1153.14H138.939C140.698 1153.14 142.384 1152.44 143.627 1151.2L173.485 1121.34C174.042 1120.78 174.45 1120.1 174.672 1119.34C174.893 1118.59 174.921 1117.8 174.752 1117.03L148.484 992.744C148.358 992.198 148.061 991.706 147.635 991.341C147.209 990.976 146.678 990.757 146.119 990.717C141.22 990.351 126.917 990.154 103.211 990.126C79.5333 990.126 65.2449 990.309 60.3461 990.675C59.7868 990.715 59.2551 990.934 58.8294 991.298C58.4036 991.663 58.1063 992.155 57.9811 992.702L31.6286 1116.99C31.4595 1117.75 31.487 1118.55 31.7085 1119.3C31.9299 1120.05 32.3382 1120.74 32.8955 1121.3L62.7533 1151.2C63.9965 1152.44 65.6826 1153.14 67.4409 1153.14H85.474C86.146 1153.14 86.7905 1152.87 87.2657 1152.4C87.7409 1151.92 88.0079 1151.28 88.0079 1150.61V1122.9C88.0021 1122.63 88.0517 1122.36 88.1536 1122.1C88.2556 1121.85 88.4078 1121.62 88.6011 1121.43C88.7944 1121.23 89.0249 1121.08 89.2785 1120.98C89.5322 1120.88 89.8039 1120.83 90.0772 1120.83C94.413 1120.86 98.7909 1120.89 103.211 1120.92Z" fill="black"/>
<path d="M103.161 1018.76C103.499 1018.76 103.823 1018.83 104.132 1018.97C104.442 1019.11 104.667 1019.33 104.808 1019.64C120.913 1053.51 130.26 1072.88 132.85 1077.75C133.477 1078.93 133.773 1080.25 133.706 1081.57C133.639 1082.9 133.212 1084.18 132.47 1085.27L120.265 1103.05C119.761 1103.78 119.103 1104.38 118.337 1104.83C117.571 1105.27 116.716 1105.55 115.831 1105.63C114.93 1105.8 110.721 1105.88 103.203 1105.88C95.6862 1105.88 91.4771 1105.8 90.5762 1105.63C89.6914 1105.55 88.8358 1105.27 88.0697 1104.83C87.3035 1104.38 86.6455 1103.78 86.1419 1103.05L73.9369 1085.31C73.1887 1084.22 72.7541 1082.94 72.6796 1081.62C72.6052 1080.3 72.8938 1078.97 73.5145 1077.8C76.1047 1072.93 85.438 1053.54 101.514 1019.64C101.655 1019.33 101.88 1019.11 102.19 1018.97C102.5 1018.83 102.823 1018.76 103.161 1018.76Z" fill="#F9160C"/>
</svg>
